<svg id="Calque_1" data-name="Calque 1" xmlns="http://www.w3.org/2000/svg" viewBox="0 0 146.75 43.18"><defs><style>.cls-1{opacity:0.5;}.cls-2{isolation:isolate;}</style></defs><title>Logo-Homere-Transports-2</title><g class="cls-1"><g id="g14"><g id="g20"><g id="path22"><path d="M16.89,16.93a1,1,0,0,0-1-1h-6a1,1,0,0,0-1,1v7.9a1,1,0,0,1-1,1H3.28a1,1,0,0,1-1-1V2.77a1,1,0,0,1,1-1H7.89a1,1,0,0,1,1,1V9.5a1,1,0,0,0,1,1h6a1,1,0,0,0,1-1V2.77a1,1,0,0,1,1-1h4.6a1,1,0,0,1,1,1V24.83a1,1,0,0,1-1,1h-4.6a1,1,0,0,1-1-1Z" transform="translate(-2.28 -1.39)"/></g></g><g id="g24"><g id="path26"><path d="M44.29,13.8c0-4-1.48-6.81-5.43-6.81s-5.43,2.82-5.43,6.81,1.47,6.81,5.43,6.81,5.43-2.79,5.43-6.81m6.8,0c0,7-3.54,12.41-12.23,12.41S26.65,20.78,26.65,13.8,30.16,1.39,38.86,1.39,51.09,6.82,51.09,13.8" transform="translate(-2.28 -1.39)"/></g></g><g id="g28"><g id="path30"><path d="M73.23,13.32c0-.55-.19-.59-.42-.1l-3.62,7.69a1.75,1.75,0,0,1-1.43.9H66.32a1.72,1.72,0,0,1-1.42-.9l-3.62-7.65c-.23-.5-.42-.45-.42.09V24.83a1,1,0,0,1-1,1H55.25a1,1,0,0,1-1-1V2.77a1,1,0,0,1,1-1H60a1.72,1.72,0,0,1,1.42.9l5.24,11.12c.23.5.61.5.85,0l5.2-11.12a1.72,1.72,0,0,1,1.42-.9h4.74a1,1,0,0,1,1,1V24.83a1,1,0,0,1-1,1h-4.6a1,1,0,0,1-1-1Z" transform="translate(-2.28 -1.39)"/></g></g><g id="g32"><g id="path34"><path d="M85,25.83a1,1,0,0,1-1-1V2.77a1,1,0,0,1,1-1h16a1,1,0,0,1,1,1V6.34a1,1,0,0,1-1,1H91.62a1,1,0,0,0-1,1v1.76a1,1,0,0,0,1,1h7.29a1,1,0,0,1,1,1v3.44a1,1,0,0,1-1,1H91.62a1,1,0,0,0-1,1v1.76a1,1,0,0,0,1,1h9.62a1,1,0,0,1,1,1v3.57a1,1,0,0,1-1,1Z" transform="translate(-2.28 -1.39)"/></g></g><g id="g36"><g id="path38"><path d="M116.64,6.89h-3.47a1,1,0,0,0-1,1V11a1,1,0,0,0,1,1h2.44c.55,0,1.45-.05,2-.11,0,0,2.93-.34,2.93-2.44s-1.65-2.54-3.89-2.54M115.44,18a2,2,0,0,0-1.51-.85h-.76a1,1,0,0,0-1,1v6.73a1,1,0,0,1-1,1h-4.61a1,1,0,0,1-1-1V2.77a1,1,0,0,1,1-1h9.49c.55,0,1.45,0,2,0,0,0,9.18-.34,9.15,7.7,0,3.89-1.82,6.26-5.71,7.22L126.7,25c.29.46.08.84-.47.84h-5a2,2,0,0,1-1.51-.85Z" transform="translate(-2.28 -1.39)"/></g></g><g id="g40"><g id="path42"><path d="M131.18,25.83a1,1,0,0,1-1-1V2.77a1,1,0,0,1,1-1h16a1,1,0,0,1,1,1V6.34a1,1,0,0,1-1,1h-9.42a1,1,0,0,0-1,1v1.76a1,1,0,0,0,1,1h7.29a1,1,0,0,1,1,1v3.44a1,1,0,0,1-1,1h-7.29a1,1,0,0,0-1,1v1.76a1,1,0,0,0,1,1h9.63a1,1,0,0,1,1,1v3.57a1,1,0,0,1-1,1Z" transform="translate(-2.28 -1.39)"/></g></g></g><g id="text46" class="cls-2"><g class="cls-2"><path d="M69,31.77,68.75,33H65.43l-1.85,8.74H62.23L64.07,33H60.75L61,31.77Z" transform="translate(-2.28 -1.39)"/></g><g class="cls-2"><path d="M71.77,34.46h1.15l-.27,1.25a3.76,3.76,0,0,1,.88-.89,2.18,2.18,0,0,1,1.38-.52H75l.27,0L75,35.61l-.19,0h-.19a2.14,2.14,0,0,0-1.53.59,2.62,2.62,0,0,0-.78,1.36l-.88,4.16H70.24Z" transform="translate(-2.28 -1.39)"/></g><g class="cls-2"><path d="M82.31,37.31A.91.91,0,0,0,83,37a1.4,1.4,0,0,0,.18-.47.84.84,0,0,0-.25-.9,2,2,0,0,0-1.2-.28,2,2,0,0,0-1.46.51,2.18,2.18,0,0,0-.46.85H78.63a2.65,2.65,0,0,1,1.26-1.86,4.1,4.1,0,0,1,2-.53,3.32,3.32,0,0,1,2,.49,1.36,1.36,0,0,1,.47,1.51l-.88,4.17a.43.43,0,0,0,0,.3q0,.12.3.12H84l.23,0-.2.89a2.36,2.36,0,0,1-.45.1,2.1,2.1,0,0,1-.4,0,.77.77,0,0,1-.81-.45,1.46,1.46,0,0,1-.07-.67,4.17,4.17,0,0,1-1.24.85,3.88,3.88,0,0,1-1.6.35,1.84,1.84,0,0,1-1.51-.61,1.71,1.71,0,0,1-.31-1.53,2.5,2.5,0,0,1,1-1.56,3.69,3.69,0,0,1,1.78-.68ZM79.92,40.9a3.15,3.15,0,0,0,1.3-.3A2.19,2.19,0,0,0,82.57,39l.2-1a3.09,3.09,0,0,1-.62.24,6.27,6.27,0,0,1-.71.13l-.75.1a3.3,3.3,0,0,0-1,.27,1.4,1.4,0,0,0-.77,1,.83.83,0,0,0,.2.83A1.21,1.21,0,0,0,79.92,40.9Z" transform="translate(-2.28 -1.39)"/></g><g class="cls-2"><path d="M89.46,34.46h1.15l-.22,1a4.65,4.65,0,0,1,1.27-.91A3.33,3.33,0,0,1,93,34.3c1,0,1.63.35,1.84,1.07a3.59,3.59,0,0,1,0,1.68l-1,4.64H92.57l1-4.56a2.41,2.41,0,0,0,0-1.06.93.93,0,0,0-1-.68,2.48,2.48,0,0,0-.72.09,2.31,2.31,0,0,0-1,.59,2.41,2.41,0,0,0-.55.74,6.16,6.16,0,0,0-.32,1.09l-.8,3.79H87.93Z" transform="translate(-2.28 -1.39)"/></g><g class="cls-2"><path d="M99.52,39.42a1.53,1.53,0,0,0,.11.93c.22.39.71.59,1.46.59a2.73,2.73,0,0,0,1.24-.29,1.28,1.28,0,0,0,.71-.91.62.62,0,0,0-.27-.71,4.17,4.17,0,0,0-1-.35l-.9-.24a3.69,3.69,0,0,1-1.25-.51,1.23,1.23,0,0,1-.49-1.37,2.68,2.68,0,0,1,1.08-1.66,3.51,3.51,0,0,1,2.11-.63,2.22,2.22,0,0,1,2.15,1,1.89,1.89,0,0,1,.16,1.31h-1.14a1.18,1.18,0,0,0-.14-.75,1.51,1.51,0,0,0-1.34-.48,2,2,0,0,0-1.09.26,1.09,1.09,0,0,0-.5.7.67.67,0,0,0,.3.75,2,2,0,0,0,.73.3l.76.2a5.07,5.07,0,0,1,1.62.61,1.36,1.36,0,0,1,.39,1.47,2.88,2.88,0,0,1-1.08,1.66,3.66,3.66,0,0,1-2.37.71,2.47,2.47,0,0,1-2.12-.74,2.36,2.36,0,0,1-.33-1.81Z" transform="translate(-2.28 -1.39)"/></g><g class="cls-2"><path d="M109.38,34.49h1.17l-.2,1a4,4,0,0,1,1-.76,3,3,0,0,1,1.53-.41,2.15,2.15,0,0,1,1.87.94,3.44,3.44,0,0,1,.28,2.7A5.21,5.21,0,0,1,113,41.29a3.31,3.31,0,0,1-1.94.64,2.13,2.13,0,0,1-1.29-.35,2.25,2.25,0,0,1-.57-.7l-.78,3.69h-1.21ZM113.73,38a3.84,3.84,0,0,0,.06-1.49,1.33,1.33,0,0,0-1.47-1.19,2.21,2.21,0,0,0-2,1.26,5.65,5.65,0,0,0-.61,1.72,3.31,3.31,0,0,0,0,1.42,1.32,1.32,0,0,0,1.48,1.12,2.13,2.13,0,0,0,1.55-.71A4.09,4.09,0,0,0,113.73,38Z" transform="translate(-2.28 -1.39)"/></g><g class="cls-2"><path d="M125.35,37.92a5.81,5.81,0,0,1-1.46,2.89A3.77,3.77,0,0,1,121,42a2.34,2.34,0,0,1-2.14-1,3.55,3.55,0,0,1-.31-2.71,5.47,5.47,0,0,1,1.54-2.9,3.83,3.83,0,0,1,2.7-1.08,2.62,2.62,0,0,1,2.15.93A3.14,3.14,0,0,1,125.35,37.92Zm-1.27,0a3.42,3.42,0,0,0,0-1.65,1.42,1.42,0,0,0-1.55-1,2.17,2.17,0,0,0-1.79.85,4.78,4.78,0,0,0-.94,2.05,3.15,3.15,0,0,0,.1,1.93,1.4,1.4,0,0,0,1.43.77,2.13,2.13,0,0,0,1.85-.92A5.49,5.49,0,0,0,124.08,38Z" transform="translate(-2.28 -1.39)"/></g><g class="cls-2"><path d="M130.3,34.46h1.15l-.26,1.25a3.5,3.5,0,0,1,.87-.89,2.18,2.18,0,0,1,1.38-.52h.12l.27,0-.27,1.28-.2,0h-.19a2.14,2.14,0,0,0-1.53.59,2.62,2.62,0,0,0-.78,1.36L130,41.69h-1.21Z" transform="translate(-2.28 -1.39)"/></g><g class="cls-2"><path d="M138.27,32.44h1.22l-.43,2h1.15l-.21,1h-1.15l-1,4.72q-.07.38.15.51a1,1,0,0,0,.46.07h.18l.24,0-.2,1a3.26,3.26,0,0,1-.45.09,3.85,3.85,0,0,1-.49,0c-.57,0-.92-.14-1.06-.43a1.75,1.75,0,0,1-.06-1.13l1-4.79h-1l.2-1h1Z" transform="translate(-2.28 -1.39)"/></g><g class="cls-2"><path d="M143.84,39.42a1.53,1.53,0,0,0,.11.93c.22.39.7.59,1.45.59a2.77,2.77,0,0,0,1.25-.29,1.27,1.27,0,0,0,.7-.91.62.62,0,0,0-.26-.71,4.17,4.17,0,0,0-1-.35l-.91-.24a3.69,3.69,0,0,1-1.25-.51,1.25,1.25,0,0,1-.49-1.37,2.74,2.74,0,0,1,1.09-1.66,3.49,3.49,0,0,1,2.11-.63,2.2,2.2,0,0,1,2.14,1,1.79,1.79,0,0,1,.16,1.31h-1.14a1.18,1.18,0,0,0-.13-.75q-.32-.48-1.35-.48a2,2,0,0,0-1.09.26,1.13,1.13,0,0,0-.5.7.7.7,0,0,0,.3.75,2,2,0,0,0,.74.3l.75.2a4.88,4.88,0,0,1,1.62.61,1.33,1.33,0,0,1,.39,1.47,2.79,2.79,0,0,1-1.08,1.66,3.65,3.65,0,0,1-2.36.71,2.46,2.46,0,0,1-2.12-.74,2.36,2.36,0,0,1-.33-1.81Z" transform="translate(-2.28 -1.39)"/></g></g></g></svg>