<?xml version="1.0" encoding="utf-8"?>
<!-- Generator: Adobe Illustrator 22.1.0, SVG Export Plug-In . SVG Version: 6.00 Build 0)  -->
<svg version="1.1" id="Calque_1" xmlns="http://www.w3.org/2000/svg" xmlns:xlink="http://www.w3.org/1999/xlink" x="0px" y="0px"
	 viewBox="0 0 18 23" style="enable-background:new 0 0 18 23;" xml:space="preserve">
<style type="text/css">
	.st0{fill:#73E999;}
</style>
<g>
	<g>
		<path class="st0" d="M1.5,22.9c-0.3,0-0.7-0.1-0.9-0.3c-0.6-0.5-0.7-1.4-0.2-2c3.6-4.2,13.3-16,14.9-19.7c0.3-0.7,1.2-1.1,1.9-0.8
			c0.7,0.3,1.1,1.1,0.8,1.9C15.8,6.9,3.1,21.8,2.6,22.4C2.3,22.8,1.9,22.9,1.5,22.9z"/>
	</g>
	<g>
		<path class="st0" d="M1.5,22.9c-0.3,0-0.6-0.1-0.9-0.3C0.2,22.4,0,21.9,0,21.4l1.2-10.5C1.3,10,2,9.5,2.8,9.6
			c0.8,0.1,1.4,0.8,1.3,1.6l-0.9,8.1l7.6-3.3c0.7-0.3,1.6,0,1.9,0.7c0.3,0.7,0,1.6-0.7,1.9l-10,4.3C1.9,22.9,1.7,22.9,1.5,22.9z"/>
	</g>
</g>
</svg>
