<svg xmlns="http://www.w3.org/2000/svg" viewBox="0 0 785.48 507.8"><defs><style>.ad715622-3b7b-4155-845b-cbfca13df2b8{fill:#40a9ff;}.b2d4866b-f698-4670-86c7-6bd999c8c57a{fill:#c4c4c4;}.ec99fe69-a270-459a-8f50-b70f02978432{fill:#fff;}.ada562e7-3841-4c6c-8ef2-4e2e8b0de0e8{fill:#848484;}.be05e901-6f82-4b56-8787-58b622a0bedc{fill:#ff94c5;}.ab4eb976-b432-4bcc-9f32-ebc89fe1b152{fill:#f2a54e;}.a663e325-d197-4647-acd9-a5e62e391f5d{fill:#72e999;}.fce08e7a-2210-4074-8a9d-8c7752459a67{fill:#6df297;}.abb16461-d557-47f4-a637-ac71a568e3b6{fill:#969696;}.f648661a-18da-4872-9ed2-e893d19ea295{fill:none;}.b0b2d238-b2d4-4cdf-8155-04a43dfddcef{fill:#989b9e;}.bdfbd43f-ade2-4f61-9bdf-852e2ef915a9{fill:#626363;}.b88177db-6e84-44fa-b616-aeb62fb96e3a{fill:#b2b2b2;}.a7593d40-14eb-4828-bd42-abaeb811c75d{fill:#2791d8;}.a444b7e6-62ad-47be-98cd-4517f507709e{fill:#2790d6;}.e0639826-94ce-4336-8e55-84c7850c750f{fill:#b7e0f7;}.fbe84b55-f256-421d-8a8c-959b6b321763{fill:#eaeaea;}.e8a3eb4d-54c4-4bf3-b6a6-49f56a22a1a7{fill:#c1c1c1;}.fd65846c-f2f5-4b78-931b-120dd1dd1022{fill:#ddd;}.b843eb1e-b683-4ab8-b65b-f7bfa723f066{fill:#62bbf9;}.f819d03d-2d65-4450-bac9-ed7c1f6ce4e1{fill:#c67e36;}.b7a3ebe0-57e5-42e5-b3e7-e2e34c086c14{fill:#258fd6;}.fcc3303a-9935-459f-9ffc-a7c1f54d9c7e{fill:#5eb780;}.a22e82de-94ca-45c8-843c-8f9b7fc7089a{fill:#deeef9;}.ba90cc90-a80a-4512-bc2f-8ab357268d9b{isolation:isolate;}.bb911f1d-bf7a-4af5-b11f-7b300260c4f8{fill:#40454d;}.f7205ae6-3c3b-4df2-af68-3dbeb96b2641{fill:#3e5975;}.b5f59027-6696-48ec-bd1c-7750eec600af{fill:#d9edff;}</style></defs><title>camion1</title><g id="e1a72f7f-538a-4d16-b801-47143c1dd50e" data-name="Couleurs"><path class="ad715622-3b7b-4155-845b-cbfca13df2b8" d="M236.58,459.54a6.91,6.91,0,0,0-2.3,5.11c0,4,3.63,7.3,8.09,7.3H365.54a8.24,8.24,0,0,0,5.68-2.15,7,7,0,0,0,2.33-5.15c0-4-3.63-7.29-8.09-7.29H242.37A8.47,8.47,0,0,0,236.58,459.54Z" transform="translate(-7.26 -136.71)"/><path class="ad715622-3b7b-4155-845b-cbfca13df2b8" d="M438.76,416.84A182.8,182.8,0,0,1,452.86,398l.06-.08c-43.74,3-91.09,4.45-140.9,4.49h-5.68c-75.86,0-134.75-3.32-151-4.33a141.24,141.24,0,0,1,14.27,18.78l1.54,0c21.82-.6,65.36-.77,82.33,6.48l.08,0,.78.35.2.1.62.3.26.15.5.27.31.18.41.25.32.22.34.23.33.25.27.21c.15.12.28.24.41.36l.13.11a6.88,6.88,0,0,1,2.26,4.09,4.48,4.48,0,0,1,0,.64,6.2,6.2,0,0,1-1.66,4.38c-.16.19-.34.37-.52.56s-.42.38-.65.56l-.21.16c-.18.14-.36.27-.56.4l-.21.15c-.26.17-.54.34-.83.51l-.12.06c-.26.15-.52.28-.79.42l-.3.14-.76.35-.26.12-1.07.42-.24.09-.91.32-.37.13-.95.29-.29.09-1.26.35-.35.09-1,.25L247,441l-1.15.26-.26.05-1.43.29-.44.08-1.09.2-.49.08-1.38.22-.22,0-1.5.22-.54.07-1.13.15-.54.07-1.6.18-.34,0-1.35.14-.6.06-1.18.11-.56.05-1.66.14-.48,0-1.27.1-.64,0-1.22.08-.56,0-1.67.09-.61,0-1.18.06-.68,0L220,444l-.51,0-1.67.06-.66,0-1.11,0-.72,0-1.27,0h-.64l-1.43,0h-9.44l-3.8-.05h0l-1.14,0h-.22l-.94,0h-.21l-.94,0h-.18l-.92,0H194l-.89,0h-.17l-.94,0h-.05c-3.06-.09-5.58-.2-7.34-.29.16.33.32.67.48,1l0,0a327.39,327.39,0,0,1,19.45,48.87l.35,1.11.13.43a1.63,1.63,0,0,1,.38,1.05c0,.06,0,.11,0,.17,2.33,7.81,4.38,15.55,6.11,23a1.7,1.7,0,0,1,.33,1c0,.1,0,.21,0,.31,2.25,9.52,4.14,19.48,5.59,29.62a1.71,1.71,0,0,1,.1.51c.1.52.17,1,.24,1.52l0,.19c1.1,7.56,20.74,10.87,53.87,9.06a594.35,594.35,0,0,1,64.57,0c33.13,1.81,52.77-1.5,53.87-9.09l0-.16a13.39,13.39,0,0,0,.28-1.7v0a.45.45,0,0,1,0-.11c1.56-10.25,3.49-20.48,5.76-30.4a1.55,1.55,0,0,1,0-.21c.24-1,.49-2.09.74-3.13.18-.76.37-1.51.55-2.26.07-.27.13-.54.2-.82s.13-.5.19-.75c.15-.61.3-1.22.46-1.83.59-2.3,1.22-4.69,1.94-7.29l.23-.81c.08-.27.16-.53.23-.8.12-.43.25-.86.37-1.29.19-.67.38-1.35.58-2,.3-1.05.6-2.1.92-3.14l0-.11c.06-.23,1.79-6.7,5.6-17.09,1.85-5.05,3.9-10.19,6.07-15.27h0a.53.53,0,0,0,.06-.14,1,1,0,0,0,.05-.12l0,0h0c2.77-6.57,5.75-13,8.87-19.25-7.72.36-23.81.88-39.2.07l-.74,0-.54,0c-17.29-1-28.37-3.42-33-7.28l-.06,0c-.18-.15-.34-.3-.5-.45a6.49,6.49,0,0,1-2.16-4.92,6.74,6.74,0,0,1,2.33-4.76c.17-.16.36-.33.56-.49l.11-.08c.17-.14.35-.27.54-.41l.05,0c6-4.24,20.19-7,42.21-8.1h.26l1.41-.08c14.23-.68,28.64-.58,38.37-.36h.18l1.87.05h.24l1.71,0h.18Zm-71.68,120.1a10.14,10.14,0,0,1-7.37,3.11H248.19a10.66,10.66,0,0,1-7.44-18.14,10.34,10.34,0,0,1,7.44-3.11H359.64a10.66,10.66,0,0,1,7.44,18.14Zm4.73-31.86a11,11,0,0,1-7.8,3.06H243.9a10.93,10.93,0,0,1-11.18-10.63A10.29,10.29,0,0,1,236,490a11.42,11.42,0,0,1,7.88-3.07h120c6.16,0,11.18,4.77,11.18,10.63A10.31,10.31,0,0,1,371.81,505.08ZM365.46,454c6.3,0,11.43,4.76,11.43,10.62a10.19,10.19,0,0,1-3.39,7.58,11.37,11.37,0,0,1-8,3H242.37c-6.3,0-11.43-4.76-11.43-10.63a10.18,10.18,0,0,1,3.39-7.57,11.81,11.81,0,0,1,8-3.05Z" transform="translate(-7.26 -136.71)"/><path class="ad715622-3b7b-4155-845b-cbfca13df2b8" d="M359.64,522.13H248.19a7.06,7.06,0,0,0-5.07,2.12,7.31,7.31,0,0,0-2.09,5.17,7.23,7.23,0,0,0,7.16,7.3H359.71a6.72,6.72,0,0,0,5-2.09,7.34,7.34,0,0,0,2.12-5.21A7.23,7.23,0,0,0,359.64,522.13Z" transform="translate(-7.26 -136.71)"/><path class="ad715622-3b7b-4155-845b-cbfca13df2b8" d="M363.93,490.22h-120a8.09,8.09,0,0,0-5.59,2.16,7,7,0,0,0-2.25,5.13,7.6,7.6,0,0,0,7.84,7.3H364a7.79,7.79,0,0,0,5.48-2.14,7,7,0,0,0,2.28-5.16A7.59,7.59,0,0,0,363.93,490.22Z" transform="translate(-7.26 -136.71)"/><path class="b2d4866b-f698-4670-86c7-6bd999c8c57a" d="M397.18,604v18c0,7.32.09,10.35,2.41,11.87,2.91,1.91,10.28,2.06,21.21,2.06h2.86c9.75,0,14.67-.79,17-2.72,2.17-1.8,2.53-4.91,2.53-11.21V598.58A25.8,25.8,0,0,1,427.26,604Zm10.65,25.37-3.83,2.2a1.67,1.67,0,1,1-1.66-2.89l3.77-2.17-.06,0-2.66-1a3.41,3.41,0,0,1-2.33-3,3.31,3.31,0,0,1,1.93-3.08l3-1.56a1.62,1.62,0,0,1-.41-.22l-3.12-2.35a1.67,1.67,0,1,1,2-2.67l3,2.23a3.22,3.22,0,0,1,.19,5.93l-3,1.58,2.68,1a3.5,3.5,0,0,1,2.31,2.92A3.28,3.28,0,0,1,407.83,629.33Zm8.48,1.95a1.67,1.67,0,0,1-3.34,0V610.06a1.67,1.67,0,0,1,3.34,0Zm8.12,0a1.67,1.67,0,0,1-3.34,0V610.06a1.67,1.67,0,0,1,3.34,0Zm6.15-22.47,5.56-2.25a1.67,1.67,0,0,1,1.25,3.1l-5.1,2.05,3.37,1.74a3.09,3.09,0,0,1,1.81,2.94,3.31,3.31,0,0,1-2.34,2.81l-2.26.77,2.57,1.2a3.13,3.13,0,0,1,1.93,3A3.22,3.22,0,0,1,435,627l-1.94.68,4.79,1.9a1.67,1.67,0,1,1-1.23,3.1l-5.29-2.1a3.16,3.16,0,0,1-2.17-3,3.23,3.23,0,0,1,2.33-2.93l2-.69-2.57-1.2a3.1,3.1,0,0,1-2-2.93,3.25,3.25,0,0,1,2.38-2.86l2.31-.79-3.35-1.72a3.09,3.09,0,0,1-1.83-2.84A3.19,3.19,0,0,1,430.58,608.81Z" transform="translate(-7.26 -136.71)"/><path class="b2d4866b-f698-4670-86c7-6bd999c8c57a" d="M161.72,599.65V624c0,9.18,0,11.95,17.41,11.95h2.61c13.79,0,20.36-.63,23.43-2.24,2.44-1.27,2.56-3.08,2.56-8.11V604H176.1A25.84,25.84,0,0,1,161.72,599.65Zm35.59,21.08a3.22,3.22,0,0,1,.18-5.93l3-2.23a1.67,1.67,0,0,1,2,2.67l-3.12,2.35a1.62,1.62,0,0,1-.41.22l3,1.57a3.3,3.3,0,0,1,1.91,3.08,3.4,3.4,0,0,1-2.33,3l-2.68,1-.05,0,3.78,2.17a1.67,1.67,0,0,1-1.66,2.89l-3.82-2.19a3.28,3.28,0,0,1-1.75-3.09,3.49,3.49,0,0,1,2.28-2.91l2.71-1Zm-8.71-10.67a1.67,1.67,0,0,1,3.34,0v21.22a1.67,1.67,0,0,1-3.34,0Zm-8.12,0a1.67,1.67,0,0,1,3.34,0v21.22a1.67,1.67,0,0,1-3.34,0ZM173.56,617a3.23,3.23,0,0,1,2.38,2.85,3.11,3.11,0,0,1-2,2.94L171.41,624l2,.7a3.21,3.21,0,0,1,2.32,2.92,3.17,3.17,0,0,1-2.19,3l-5.27,2.09a1.67,1.67,0,0,1-1.23-3.1l4.79-1.9-2-.69a3.21,3.21,0,0,1-2.33-2.79,3.12,3.12,0,0,1,1.92-3L172,620l-2.24-.77a3.31,3.31,0,0,1-2.36-2.81,3.08,3.08,0,0,1,1.8-2.93l3.38-1.75-5.1-2.05a1.67,1.67,0,0,1,1.25-3.1l5.53,2.23a3.22,3.22,0,0,1,2.13,2.82,3.08,3.08,0,0,1-1.84,2.84l-3.34,1.72Z" transform="translate(-7.26 -136.71)"/><path class="ad715622-3b7b-4155-845b-cbfca13df2b8" d="M207.45,516.78c-.22-.91-.43-1.82-.66-2.73s-.5-1.95-.75-2.92-.46-1.79-.7-2.69c-.46-1.76-1-3.52-1.45-5.3-.27-1-.56-1.94-.84-2.91l-.69-2.37H153.23c.07,6.78.15,13.76.28,20.85h54.41C207.76,518.07,207.61,517.42,207.45,516.78Z" transform="translate(-7.26 -136.71)"/><path class="ec99fe69-a270-459a-8f50-b70f02978432" d="M213.37,546.05c-.18-1.15-.36-2.3-.55-3.44-.23-1.36-.48-2.71-.72-4.07s-.52-2.87-.8-4.3q-.56-2.88-1.15-5.72c-.22-1-.47-2.08-.7-3.11s-.5-2.25-.76-3.36H153.57c.15,8.65.36,17.44.57,26.71v.4h59.7Z" transform="translate(-7.26 -136.71)"/><path class="ad715622-3b7b-4155-845b-cbfca13df2b8" d="M217.84,440.68c4.09-.14,7.77-.33,11.07-.58l.3,0,1.38-.11,1.06-.09.84-.08,1-.1.42,0,1.09-.11h.07l2.23-.26.31,0,.81-.11.67-.09.6-.08,1-.16.24,0c8.22-1.3,12.44-3,14.56-4.6l.22-.17.16-.13.38-.33a3.28,3.28,0,0,0,1.17-2.45,3.48,3.48,0,0,0-1.27-2.39,8.81,8.81,0,0,0-.85-.7l0,0c-.3-.22-.64-.43-1-.64l-.07,0c-.35-.2-.73-.4-1.13-.59l-.1-.05c-.4-.19-.83-.38-1.27-.56l-.14-.06c-.44-.18-.91-.35-1.39-.52l-.18-.06c-.48-.17-1-.33-1.51-.49l-.21-.06-1.64-.45-.23-.06c-.56-.15-1.15-.29-1.75-.43l-.26-.06c-.6-.13-1.23-.27-1.87-.39l-.26-.06-2-.37L240,423l-2.11-.35-.27,0-2.23-.33-.26,0-2.35-.31-.25,0-2.46-.28-.22,0-2.6-.26-.16,0-2.75-.24h-.09c-5.82-.48-12.13-.81-18.68-1h0l-3.24-.09h-.09l-3.23-.07h-.14l-3.21,0h-.18l-3.19,0h-7.11l-3.08,0h-.38l-3,0h-.39l-3,.05h-.47l-2.91.08h-.2l.06.09.3.5c.41.67.83,1.36,1.24,2.05.18.29.36.59.53.89.35.58.69,1.16,1,1.75l.58,1c.33.57.66,1.15,1,1.73.2.34.39.69.59,1l1,1.84.53,1,1.28,2.4c.08.16.16.31.25.46.51,1,1,1.95,1.52,2.94l.43.85.85,1.67C186.75,440.48,201.86,441.19,217.84,440.68Z" transform="translate(-7.26 -136.71)"/><path class="ada562e7-3841-4c6c-8ef2-4e2e8b0de0e8" d="M126.92,335.12H119a8.23,8.23,0,0,0-8.09,8.34V381a8.23,8.23,0,0,0,8.09,8.34h7.89a8.15,8.15,0,0,0,7.94-6.85A10.21,10.21,0,0,0,135,381V343.46A8.22,8.22,0,0,0,126.92,335.12Z" transform="translate(-7.26 -136.71)"/><path class="ada562e7-3841-4c6c-8ef2-4e2e8b0de0e8" d="M119,331.78h7.88a8.23,8.23,0,0,0,8.09-8.34V312.6a8.23,8.23,0,0,0-8.09-8.34H119a8.23,8.23,0,0,0-8.09,8.34v10.84A8.23,8.23,0,0,0,119,331.78Z" transform="translate(-7.26 -136.71)"/><path class="ad715622-3b7b-4155-845b-cbfca13df2b8" d="M446.42,258c2.5-15.79,10-71.16.43-112.7a5,5,0,0,0-1.13-2.14c-13.73,18.3-26,60-34,92.7C427.59,241.56,439.22,249,446.42,258Z" transform="translate(-7.26 -136.71)"/><path class="ad715622-3b7b-4155-845b-cbfca13df2b8" d="M182.1,446.2c-.6-1.21-1.2-2.39-1.79-3.55a1.62,1.62,0,0,1-.15-.42c-2.52-5.05-5.08-9.83-7.64-14.29-.23-.39-.45-.78-.68-1.16-1-1.63-1.9-3.23-2.85-4.76-.4-.66-.81-1.29-1.21-1.93a1.64,1.64,0,0,1-.84-.65.75.75,0,0,0-.07-.12,166.91,166.91,0,0,0-14-18.58l.31,93.78h48.13A403,403,0,0,0,182.1,446.2Z" transform="translate(-7.26 -136.71)"/><path class="ad715622-3b7b-4155-845b-cbfca13df2b8" d="M209.24,278.24c23.11-1.58,53.78-2.34,93.78-2.34,43.06,0,74.94.79,97.44,2.42,29.88,2.12,44.6,5.49,49.86,11.52,1.16-3.64,3.58-14.66-4.29-26.71-6.65-10.18-19-18.46-36.8-24.61-25-8.68-60.3-13.09-104.82-13.09-44,0-79.23,4.32-104.6,12.85-17.91,6-30.71,14.14-38.05,24.17a33.39,33.39,0,0,0-6.82,19.88,29.14,29.14,0,0,0,.76,6.82C162.65,283.72,179.42,280.31,209.24,278.24Z" transform="translate(-7.26 -136.71)"/><path class="ad715622-3b7b-4155-845b-cbfca13df2b8" d="M304.41,222.1c43.89,0,78.92,4.27,104.18,12.68,8.06-32.86,20.34-74.58,34.32-93.42-8-3-27.77-.73-59,6.87-29.79,7.31-79.46,6-80,6,.05,0-3.91.08-10.2.08-16.78,0-48.15-.78-69.74-6.05-31.16-7.58-50.95-9.89-58.94-6.89,13.91,18.77,26.78,60.43,35.37,93.22C226,226.29,261,222.1,304.41,222.1Z" transform="translate(-7.26 -136.71)"/><path class="ad715622-3b7b-4155-845b-cbfca13df2b8" d="M197.27,235.63c-8.55-32.67-21.36-74.26-35-92.5a5.17,5.17,0,0,0-1.19,2.23c-4.42,19.24-5.77,43.58-4,72.32,1.13,18.16,3.26,33.2,4.32,39.91C169.12,248.6,181.17,241.22,197.27,235.63Z" transform="translate(-7.26 -136.71)"/><path class="ad715622-3b7b-4155-845b-cbfca13df2b8" d="M432.63,420h-.28l-4.31-.08H428l-4.46-.05h-.17l-4.5,0h-.05c-1.82,0-3.63,0-5.45,0h-.25l-5.32.08h-.2l-2.62,0h-.18c-1.75,0-3.48.1-5.2.16h-.3l-2.52.11h-.12l-2.43.12H394l-2.4.13-.35,0c-1.6.09-3.17.19-4.71.31l-.36,0-2.24.18-.29,0-2.12.19h-.17l-2.13.21-.4,0-2.07.22-.17,0-1.9.23-.34,0-1.91.26-.35.05c-.62.08-1.23.17-1.82.27h-.09l-1.8.29L368,423l-1.69.31-.26.05-1.49.3-.25.05-1.53.34-.32.08-1.47.37-.07,0c-.46.12-.9.24-1.33.37l-.27.08-1.26.4-.23.08c-.38.13-.75.26-1.11.4l-.11,0-1.07.45-.23.1c-.33.15-.66.3-1,.46l-.12.06-.8.45-.14.09c-.27.16-.51.33-.75.5l-.14.11c-.23.18-.45.36-.64.54a3.49,3.49,0,0,0-1.28,2.42,3.22,3.22,0,0,0,1.15,2.44c.13.12.26.24.41.36l.16.13.29.23.19.13.31.21.21.13.34.21.24.13.35.19.27.13.37.18.27.12.41.18.3.12.42.17.31.11.46.17.32.11.48.16.33.1.51.16.34.09.53.15.35.1.56.14.35.09.6.14.35.08.63.14.36.08.65.13.36.07.69.14.34.06.72.13.35.06.76.12.32.05.81.13.31,0,.85.13.29,0,.89.11.29,0,.91.11.29,0,.94.11.25,0,1,.11.23,0,1,.11.23,0,1.06.1h.21l1.09.1h.2l1.14.09H379l1.18.09h.15l1.21.08h.11l1.25.08H383l1.26.07h.11l1.28.06h.08l1.33.05h0l1.37.05h0c7.94.3,16.21.3,23.8.13h0l1.27,0h.08l1.21,0H415l1.16,0h.16l1,0h.31l.91,0,.38,0,.83,0,.44,0,.73,0,.56,0,.56,0,.68,0,.46,0,.73,0,.37,0,.82,0h.11c.24-.45.5-.92.74-1.38l1.49-2.74,1.07-1.94c.51-.91,1-1.83,1.56-2.75l1.12-1.94c.57-1,1.16-2,1.75-3,.36-.59.71-1.19,1.08-1.79.73-1.21,1.49-2.41,2.25-3.62l.63-1h-.2Z" transform="translate(-7.26 -136.71)"/><path class="ec99fe69-a270-459a-8f50-b70f02978432" d="M399.15,522.05c-.26,1.15-.51,2.32-.76,3.48s-.45,2-.66,3q-.72,3.47-1.38,7c-.17.87-.32,1.74-.48,2.61-.28,1.53-.56,3.06-.83,4.6L394.5,546l-.51,3.17h56.83l.17-2.84c.52-8.38,1-16.34,1.42-24.19l-16.81,0Z" transform="translate(-7.26 -136.71)"/><path class="ad715622-3b7b-4155-845b-cbfca13df2b8" d="M393.36,553.06c-1.55,10-20.31,13.88-57.34,11.86a592.81,592.81,0,0,0-64.21,0q-9.49.52-17.4.52c-25.63,0-38.74-4.11-39.95-12.46l0-.21c0-.09,0-.18,0-.28H154.24l.06,2.5c.21,8.75.43,17.81.71,27a17.46,17.46,0,0,0,.58,4c2.31,8.63,10.75,14.64,20.51,14.64H427.26a22,22,0,0,0,16.33-7l.13-.15a18.36,18.36,0,0,0,4.12-7.66,14.09,14.09,0,0,0,.52-3c.72-9.09,1.53-19.72,2.21-30.4h-57.1A5.72,5.72,0,0,1,393.36,553.06ZM174.15,588.69c-6.48,0-11.75-4.86-11.75-10.84S167.67,567,174.15,567s11.75,4.86,11.75,10.84S180.63,588.69,174.15,588.69Zm25.61-3.33c-4.46,0-8.09-3.37-8.09-7.51s3.63-7.51,8.09-7.51,8.09,3.37,8.09,7.51S204.22,585.36,199.76,585.36Zm139.73,1a5.67,5.67,0,0,1-5.65,5.67H274.07a5.63,5.63,0,0,1-5.57-5.67v-6.09a5.63,5.63,0,0,1,5.57-5.67h59.85a5.63,5.63,0,0,1,5.57,5.67ZM432,567c6.48,0,11.75,4.86,11.75,10.84s-5.27,10.84-11.75,10.84-11.75-4.86-11.75-10.84S425.49,567,432,567Zm-25.61,3.33c4.46,0,8.09,3.37,8.09,7.51s-3.63,7.51-8.09,7.51-8.09-3.37-8.09-7.51S401.9,570.34,406.36,570.34Z" transform="translate(-7.26 -136.71)"/><path class="ad715622-3b7b-4155-845b-cbfca13df2b8" d="M405.46,497.86c-.43,1.48-.85,2.95-1.27,4.41l-.3,1.05c-1.44,5.13-2.76,10.2-3.93,15.16l-.06.23,34.09.06,18.59,0,.05-1c.34-6.86.66-13.38.94-19.81l-24.34,0Z" transform="translate(-7.26 -136.71)"/><path class="ad715622-3b7b-4155-845b-cbfca13df2b8" d="M451.9,404.57c-.58.76-1.15,1.53-1.72,2.29s-1,1.33-1.49,2-1.1,1.54-1.64,2.3l-1.43,2c-.54.77-1.05,1.55-1.58,2.32l-1.36,2-1.51,2.32c-.43.66-.87,1.33-1.29,2s-1,1.54-1.45,2.31-.83,1.31-1.22,2-.93,1.53-1.38,2.3l-1.17,1.94c-.45.77-.87,1.52-1.31,2.28s-.74,1.27-1.1,1.91-.84,1.5-1.25,2.25-.7,1.25-1,1.86-.79,1.48-1.19,2.21l-1,1.82-1.1,2.14-.93,1.8-1,2.08-.87,1.74-1,2c-.27.56-.55,1.12-.81,1.67s-.64,1.38-1,2.07l-.69,1.48c-.32.71-.63,1.39-.94,2.09-.19.43-.4.88-.59,1.3l-1.4,3.22c0,.09-.09.22-.15.36-2.08,5-4.07,10-5.89,15.08-1.77,4.88-3.44,9.86-5,14.85l27.4,0,19.78,0,1.37-94c-.53.66-1,1.33-1.58,2Z" transform="translate(-7.26 -136.71)"/><path class="ec99fe69-a270-459a-8f50-b70f02978432" d="M406.36,582a4.21,4.21,0,1,0,0-8.34c-2.62,0-4.76,1.87-4.76,4.17S403.74,582,406.36,582Z" transform="translate(-7.26 -136.71)"/><ellipse class="ec99fe69-a270-459a-8f50-b70f02978432" cx="424.71" cy="441.14" rx="8.41" ry="7.51"/><path class="ada562e7-3841-4c6c-8ef2-4e2e8b0de0e8" d="M489,335.12h-7.89a8.23,8.23,0,0,0-8.09,8.34V381a4.67,4.67,0,0,0,.11,1.3l0,.16a8.16,8.16,0,0,0,7.95,6.88H489a8.23,8.23,0,0,0,8.09-8.34V343.46A8.23,8.23,0,0,0,489,335.12Z" transform="translate(-7.26 -136.71)"/><path class="b2d4866b-f698-4670-86c7-6bd999c8c57a" d="M452,323.61c-.94-12.17-2-21.87-2.68-28.11a6,6,0,0,0-1-2.81c-3.73-5.48-19-9-48.11-11C377.8,280,346,279.23,303,279.23c-39.92,0-70.52.77-93.55,2.33-30.57,2.13-47.87,5.83-52.91,11.3l-.23.27a5.77,5.77,0,0,0-1.49,3.77l-.09,2.48c-.22,6.44-.5,14.43-.71,23.59a1.84,1.84,0,0,1,.07.47,1.63,1.63,0,0,1-.1.55c-.49,19.42-.83,38.49-1,58.27a2,2,0,0,1,.08.49,1.71,1.71,0,0,1-.09.51c0,2,0,4,0,6,0,1.64,0,3.29,0,4.95,13.51.92,72.17,4.57,149.38,4.81,2.64,0,5.31,0,8,0H313c43.7-.11,92.65-1.35,142.12-4.76-.07-4-.14-7.81-.21-11.59C454.34,361.08,453.39,341.2,452,323.61Z" transform="translate(-7.26 -136.71)"/><path class="ada562e7-3841-4c6c-8ef2-4e2e8b0de0e8" d="M489,304.26h-7.89A8.23,8.23,0,0,0,473,312.6v10.84a8.23,8.23,0,0,0,8.09,8.34H489a8.23,8.23,0,0,0,8.09-8.34V312.6A8.23,8.23,0,0,0,489,304.26Z" transform="translate(-7.26 -136.71)"/><path class="b2d4866b-f698-4670-86c7-6bd999c8c57a" d="M333.92,577.93H274.07a2.29,2.29,0,0,0-2.23,2.34v6.09a2.28,2.28,0,0,0,2.23,2.33h59.77a2.35,2.35,0,0,0,2.31-2.33v-6.09A2.29,2.29,0,0,0,333.92,577.93Z" transform="translate(-7.26 -136.71)"/><ellipse class="ec99fe69-a270-459a-8f50-b70f02978432" cx="166.89" cy="441.14" rx="8.41" ry="7.51"/><path class="ec99fe69-a270-459a-8f50-b70f02978432" d="M199.76,573.68a4.21,4.21,0,1,0,0,8.34c2.62,0,4.76-1.87,4.76-4.17S202.38,573.68,199.76,573.68Z" transform="translate(-7.26 -136.71)"/><path class="be05e901-6f82-4b56-8787-58b622a0bedc" d="M526.9,607.15a8.59,8.59,0,0,0,2.75,3.44A18.63,18.63,0,0,1,526.9,607.15Z" transform="translate(-7.26 -136.71)"/><path class="be05e901-6f82-4b56-8787-58b622a0bedc" d="M693.64,421.73a11.3,11.3,0,0,0-2.1-3,9.19,9.19,0,0,0-4-2.4A18.93,18.93,0,0,1,693.64,421.73Z" transform="translate(-7.26 -136.71)"/><path class="ab4eb976-b432-4bcc-9f32-ebc89fe1b152" d="M550.81,531.32h-7.95a18.74,18.74,0,0,0-2.13.12l11.19.06A3.69,3.69,0,0,0,550.81,531.32Z" transform="translate(-7.26 -136.71)"/><path class="ab4eb976-b432-4bcc-9f32-ebc89fe1b152" d="M529.65,610.59c3.58,2.69,8.54,2.49,8.6,2.49h16.42a3,3,0,0,0,.09-.74V535.27c0-.15,0-.28,0-.42l-16.38-.08a11.47,11.47,0,0,0-8.58,3.43c-4.24,4.54-3.88,12.14-3.88,12.21s0,.06,0,.1V602a12.5,12.5,0,0,0,1,5.2A18.63,18.63,0,0,0,529.65,610.59Z" transform="translate(-7.26 -136.71)"/><path class="ab4eb976-b432-4bcc-9f32-ebc89fe1b152" d="M558.09,612.33a3.57,3.57,0,0,0,.09.74h18.09c9.29,0,9.74-8.85,9.75-9.23s.11-37.56.11-53.33c0-8.38-2.1-12.19-3.86-13.91a5.17,5.17,0,0,0-3.22-1.63l-20.91-.11a2.87,2.87,0,0,0,0,.41Z" transform="translate(-7.26 -136.71)"/><path class="ab4eb976-b432-4bcc-9f32-ebc89fe1b152" d="M570,531.32h-8a4,4,0,0,0-1.25.22l12.42.06A19,19,0,0,0,570,531.32Z" transform="translate(-7.26 -136.71)"/><path class="a663e325-d197-4647-acd9-a5e62e391f5d" d="M687.49,416.35a7.37,7.37,0,0,0-1.8-.29h0L657.6,416a4,4,0,0,0-.61,2.1V450.4a4,4,0,0,0,4,4H693.3a3.94,3.94,0,0,0,2.24-.7c0-8.29,0-16.44,0-22a22.22,22.22,0,0,0-1.94-9.95A18.93,18.93,0,0,0,687.49,416.35Z" transform="translate(-7.26 -136.71)"/><path class="a663e325-d197-4647-acd9-a5e62e391f5d" d="M649.71,454.35a4,4,0,0,0,3.95-4V418.05a3.91,3.91,0,0,0-.63-2.11l-21-.08c-5.87.07-10.31,1.7-13.2,4.86-4.18,4.55-3.77,10.77-3.76,10.83v22.06a3.87,3.87,0,0,0,2.29.74Z" transform="translate(-7.26 -136.71)"/><path class="fce08e7a-2210-4074-8a9d-8c7752459a67" d="M631.4,497.9h-.76c.47,0,.94.06,1.42.06h17.65a3.68,3.68,0,0,0,.58-.06H631.4Z" transform="translate(-7.26 -136.71)"/><path class="a663e325-d197-4647-acd9-a5e62e391f5d" d="M653.66,461.64a4,4,0,0,0-3.95-3.95H617.35a3.94,3.94,0,0,0-2.29.74v24.94a9.12,9.12,0,0,0,2.77,6.93c4.78,4.58,14,4.26,14.11,4.25H653.6a3.31,3.31,0,0,0,.06-.55Z" transform="translate(-7.26 -136.71)"/><path class="fce08e7a-2210-4074-8a9d-8c7752459a67" d="M660.35,497.89a3.8,3.8,0,0,0,.59.06h17.65c.47,0,.93,0,1.39-.06Z" transform="translate(-7.26 -136.71)"/><path class="a663e325-d197-4647-acd9-a5e62e391f5d" d="M660.94,457.69a4,4,0,0,0-4,3.95V494a3.31,3.31,0,0,0,.06.55h25c12.42,0,13.34-8.57,13.39-9.28,0-.93.05-13.46.09-26.89a3.92,3.92,0,0,0-2.22-.69Z" transform="translate(-7.26 -136.71)"/><path class="ad715622-3b7b-4155-845b-cbfca13df2b8" d="M675.81,564.9a3.94,3.94,0,0,0-3.94-3.95h-35.7a4,4,0,0,0-3.95,3.95V612a3.4,3.4,0,0,0,.2,1.1h43.2a3.39,3.39,0,0,0,.19-1.1Z" transform="translate(-7.26 -136.71)"/><path class="ad715622-3b7b-4155-845b-cbfca13df2b8" d="M632.22,553.66a4,4,0,0,0,3.95,4h35.7a3.94,3.94,0,0,0,3.94-4V507.08a3.93,3.93,0,0,0-.6-2.09l-42.28-.16a3.88,3.88,0,0,0-.71,2.25Z" transform="translate(-7.26 -136.71)"/><path class="ad715622-3b7b-4155-845b-cbfca13df2b8" d="M679.15,553.66a4,4,0,0,0,4,4h23.12a3.88,3.88,0,0,0,2.23-.69c0-11.31,0-22.45,0-30,0-8.29-1.9-14.38-5.67-18.13a12.43,12.43,0,0,0-8.15-3.73L679.75,505a4,4,0,0,0-.6,2.07Z" transform="translate(-7.26 -136.71)"/><path class="ad715622-3b7b-4155-845b-cbfca13df2b8" d="M708.31,599.84c0-.26.07-18.79.13-38.21a3.94,3.94,0,0,0-2.22-.68H683.1a4,4,0,0,0-4,3.95V612a3.4,3.4,0,0,0,.2,1.1H689.8C707.35,613.08,708.28,600.38,708.31,599.84Z" transform="translate(-7.26 -136.71)"/><path class="ad715622-3b7b-4155-845b-cbfca13df2b8" d="M628.89,564.9a4,4,0,0,0-3.95-3.95H601.81a3.92,3.92,0,0,0-2.28.73v35.59a13.21,13.21,0,0,0,4,9.94c6.59,6.32,19.09,5.88,19.22,5.87h6a3.35,3.35,0,0,0,.2-1.1Z" transform="translate(-7.26 -136.71)"/><path class="ad715622-3b7b-4155-845b-cbfca13df2b8" d="M624.94,557.61a4,4,0,0,0,3.95-4V507.08a3.9,3.9,0,0,0-.72-2.26l-5.37,0c-7.93.09-14,2.33-18,6.65-5.86,6.37-5.32,15.26-5.31,15.35v30.08a3.92,3.92,0,0,0,2.28.73Z" transform="translate(-7.26 -136.71)"/></g><g id="b3abc69e-6976-4dcc-9a08-3ffc49b4e9ae" data-name="Ombres &amp; lumières"><path class="abb16461-d557-47f4-a637-ac71a568e3b6" d="M152.9,297.16S189,287,253.46,286s103,0,103,0,38.48-1,95.11,11.15v-4.7l-8.68-5s-37.1-11.41-124-10.07l-104.31,1.87s-50.46,2.5-59.65,13.57Z" transform="translate(-7.26 -136.71)"/><path class="f648661a-18da-4872-9ed2-e893d19ea295" d="M442.91,287.43s-37.1-11.41-124-10.07l-104.31,1.87s-50.46,2.5-59.65,13.57l-2,4.36S189,287,253.46,286s103,0,103,0,38.48-1,95.11,11.15v-4.7Z" transform="translate(-7.26 -136.71)"/><path class="b0b2d238-b2d4-4cdf-8155-04a43dfddcef" d="M159.94,614.78s7.64,4.18,21.64,4.18,28-1.15,28-1.15v-16H178l-12-1.56-4.27-3.35-1.78,2.37Z" transform="translate(-7.26 -136.71)"/><path class="b0b2d238-b2d4-4cdf-8155-04a43dfddcef" d="M395.68,602.14v16.28l30.93-.18s8.25,1,17.11-6.81V596l-4.8,4.18-6.95,2-8.41.32Z" transform="translate(-7.26 -136.71)"/><path class="bdfbd43f-ade2-4f61-9bdf-852e2ef915a9" d="M116.56,302.91c-.64,18.75,0,21.44,0,30.39v1.82c-1.21,25.17,0,55.65,0,55.65s-7.57.14-7.57-11.26v-39.2l2.21-3.76,2.87-2.5-.19-1.53-3.54-2.78-1-5.28L109,311.53Z" transform="translate(-7.26 -136.71)"/><path class="b88177db-6e84-44fa-b616-aeb62fb96e3a" d="M129.24,302.91c1.86,17.41,0,21.35,0,30.39v1.82c3.49,19.44,0,55.65,0,55.65s7.44.14,7.44-11.26v-39.2l-2.17-3.76-2.83-2.5.19-1.53,3.49-2.78.94-5.28.38-12.93Z" transform="translate(-7.26 -136.71)"/><path class="b88177db-6e84-44fa-b616-aeb62fb96e3a" d="M491.18,302.91c1.86,17.41,0,21.35,0,30.39v1.82c3.5,19.44,0,55.65,0,55.65s7.44.14,7.44-11.26v-39.2l-2.16-3.76-2.83-2.5.19-1.53,3.48-2.78.95-5.28.37-12.93Z" transform="translate(-7.26 -136.71)"/><path class="bdfbd43f-ade2-4f61-9bdf-852e2ef915a9" d="M478.62,301.48c-1.09,17.7,0,21.35,0,30.39v1.82c-1.09,27.75,0,55.65,0,55.65s-7.43.14-7.43-11.26V338.87l2.16-3.75,2.83-2.5-.19-1.53-3.49-2.78-.94-5.28-.37-12.93Z" transform="translate(-7.26 -136.71)"/><path class="a7593d40-14eb-4828-bd42-abaeb811c75d" d="M159.47,145.94s21.94,50.44,33.63,92.74l5.66-1.94V235.5l-23.91-77.15-11-16.13-2.83-.89Z" transform="translate(-7.26 -136.71)"/><path class="a7593d40-14eb-4828-bd42-abaeb811c75d" d="M416,239.36c1,.25,15-66.84,33.16-92.48l-2.33-5.18-2.07-1.63s-26.43,41-34.2,96.18Z" transform="translate(-7.26 -136.71)"/><path class="a444b7e6-62ad-47be-98cd-4517f507709e" d="M234.28,469.9s-.47,8.68,9.76,8.68H365.79s5.56-.45,7.76-7.77L369.36,472,365,473.83H239.57Z" transform="translate(-7.26 -136.71)"/><path class="a444b7e6-62ad-47be-98cd-4517f507709e" d="M236.05,502.65s-1.25,9,8.72,9H363.41s6.22-.76,8.36-8.07l-4.09,1.13-4.27,1.89H241.21Z" transform="translate(-7.26 -136.71)"/><path class="a444b7e6-62ad-47be-98cd-4517f507709e" d="M241.17,534.86s-2.17,8.87,7.06,8.87H358.05a10.6,10.6,0,0,0,8.75-8L363,536.91l-4,1.88H245.94Z" transform="translate(-7.26 -136.71)"/><path class="a444b7e6-62ad-47be-98cd-4517f507709e" d="M257.45,434.85s0,9.85-20.65,11.79a527.43,527.43,0,0,1-52.94,1.93l-2.58-6.14,5.32-.32s48.27.08,54.56-1.25S257.45,434.85,257.45,434.85Z" transform="translate(-7.26 -136.71)"/><path class="a444b7e6-62ad-47be-98cd-4517f507709e" d="M349.82,434.85s0,9.85,20.65,11.79a527.34,527.34,0,0,0,52.94,1.93l2.58-6.14-5.32-.32s-48.27.08-54.56-1.25S349.82,434.85,349.82,434.85Z" transform="translate(-7.26 -136.71)"/><path class="a444b7e6-62ad-47be-98cd-4517f507709e" d="M152.9,557.42h57.74s-.07,12.32,18.59,12.32c8.41,0,39.64-1.2,71.39-1.2,38.62,0,78,1.2,78,1.2s10.59.85,17.19-11.11a9.52,9.52,0,0,1,.57-.77h55.24l.79-6.82H392.23l-1.93,5.33-8.24,3.75L369,563.87l-20.58-.24s-45.76-1.9-50.61-1.56-46,2-46,2l-19.86-2-11.38-2-6-9.08c-.32-.49-6.67,0-6.67,0h-55Z" transform="translate(-7.26 -136.71)"/><polygon class="e0639826-94ce-4336-8e55-84c7850c750f" points="144.79 384.01 144.79 390.39 204.44 390.39 202.52 383.37 144.79 384.01"/><polygon class="e0639826-94ce-4336-8e55-84c7850c750f" points="390.95 383.51 389.02 390.53 446.31 390.53 446.31 383.51 390.95 383.51"/><path class="a444b7e6-62ad-47be-98cd-4517f507709e" d="M185.9,580.45a11.75,11.75,0,0,1-23.5,0c0-6.4,4.54,6.43,11,6.43S185.9,574.05,185.9,580.45Z" transform="translate(-7.26 -136.71)"/><path class="a444b7e6-62ad-47be-98cd-4517f507709e" d="M207.69,579.47c0,4.75-3.55,8.6-7.93,8.6s-7.92-3.85-7.92-8.6,3.06,4.78,7.43,4.78S207.69,574.72,207.69,579.47Z" transform="translate(-7.26 -136.71)"/><path class="a444b7e6-62ad-47be-98cd-4517f507709e" d="M420.23,580.55a11.75,11.75,0,0,0,23.5,0c0-6.4-4.54,6.43-11,6.43S420.23,574.15,420.23,580.55Z" transform="translate(-7.26 -136.71)"/><path class="a444b7e6-62ad-47be-98cd-4517f507709e" d="M398.45,579.57c0,4.75,3.54,8.6,7.92,8.6s7.92-3.85,7.92-8.6-3.06,4.78-7.43,4.78S398.45,574.82,398.45,579.57Z" transform="translate(-7.26 -136.71)"/><path class="a444b7e6-62ad-47be-98cd-4517f507709e" d="M269.57,585.46s-1.12,9.58,2.84,9.58h62.67s3.19-1,3.19-9l-4.14,4.18h-63Z" transform="translate(-7.26 -136.71)"/><path class="ad715622-3b7b-4155-845b-cbfca13df2b8" d="M222.57,446.68,263,465.07l30-66.09c-17.28-.12-33.54-.4-48.46-.77Z" transform="translate(-7.26 -136.71)"/><path class="ad715622-3b7b-4155-845b-cbfca13df2b8" d="M310.25,399h-6.61L282,446.68l7.41,3.37,23.18-51h-2.32Z" transform="translate(-7.26 -136.71)"/><path class="ad715622-3b7b-4155-845b-cbfca13df2b8" d="M331.47,398.91l-21.7,47.77,4.17,1.9,22.59-49.72Z" transform="translate(-7.26 -136.71)"/><path class="fbe84b55-f256-421d-8a8c-959b6b321763" d="M356.48,286,355,286,303.64,399h8.93l51.33-113C359.08,285.94,356.48,286,356.48,286Z" transform="translate(-7.26 -136.71)"/><path class="e8a3eb4d-54c4-4bf3-b6a6-49f56a22a1a7" d="M363.9,286.05l2.73-6-8.82-.23L355,286l1.48,0S359.08,285.94,363.9,286.05Z" transform="translate(-7.26 -136.71)"/><path class="fbe84b55-f256-421d-8a8c-959b6b321763" d="M382.32,287,331.47,398.91l5.06-.05,50.65-111.49Z" transform="translate(-7.26 -136.71)"/><path class="e8a3eb4d-54c4-4bf3-b6a6-49f56a22a1a7" d="M390.07,281l-4.92-.26L382.32,287l4.86.39Z" transform="translate(-7.26 -136.71)"/><path class="fbe84b55-f256-421d-8a8c-959b6b321763" d="M295.76,285.59,244.59,398.21c14.92.37,31.18.65,48.46.77l51.43-113.19C334.22,285.65,317.64,285.5,295.76,285.59Z" transform="translate(-7.26 -136.71)"/><path class="e8a3eb4d-54c4-4bf3-b6a6-49f56a22a1a7" d="M344.48,285.79l2.82-6.21c-13.21-.23-27.93-.35-44.28-.35h-4.38l-2.88,6.35C317.64,285.5,334.22,285.65,344.48,285.79Z" transform="translate(-7.26 -136.71)"/><path class="bdfbd43f-ade2-4f61-9bdf-852e2ef915a9" d="M131.28,389.94s-15.07.38-15-10.82c0-6.07-1.91,2.62-1.91,2.62l1.08,9Z" transform="translate(-7.26 -136.71)"/><path class="bdfbd43f-ade2-4f61-9bdf-852e2ef915a9" d="M131.62,332.09s-15.06,1.21-15.24-7.86c-.1-4.9-2,1.43-2,1.43l1.08,7.29Z" transform="translate(-7.26 -136.71)"/><path class="fd65846c-f2f5-4b78-931b-120dd1dd1022" d="M152.9,386.11c2.8.15,114.11,12,303.83,0v7.95s-165.64,7-166.81,6.51-137.87-7.22-137.87-7.22v-1.89Z" transform="translate(-7.26 -136.71)"/><path class="a7593d40-14eb-4828-bd42-abaeb811c75d" d="M155.7,289.15s-5.88-56.93,146.54-56.93,144.91,55,144.91,55l-.21,1.94,2.72,1.25,1.94.38,1.88-9.32-5.25-19.25s-8.2-36.73-146-38.4-155.08,49.69-148.41,66Z" transform="translate(-7.26 -136.71)"/><path class="b843eb1e-b683-4ab8-b65b-f7bfa723f066" d="M168,148.31s22.3-2.91,44.27,4.87,99,7.79,102.87,7.79,41.66,3.06,96.6-11.68c0,0,29-4.59,33-6.16v-1.74l-3.48-2.46s-33.64-.2-49.28,6-107.18,9-113.44,7.93-55.38-4-66.52-8.55-40.41-6.87-46.94-4.29-2.85,2.29-1.44,3.06S168,148.31,168,148.31Z" transform="translate(-7.26 -136.71)"/><path class="b843eb1e-b683-4ab8-b65b-f7bfa723f066" d="M167.35,255.26s-9.32-74.52-2.28-95.95l-5.6-14.37-3.17,19.64s-5.12,43.71,5,94.69Z" transform="translate(-7.26 -136.71)"/><path class="b843eb1e-b683-4ab8-b65b-f7bfa723f066" d="M441,254.49s8.64-48.33,1.94-96.86l5.33-9.34,4.37,22.05s2.82,75.88-5.55,89.27Z" transform="translate(-7.26 -136.71)"/><path class="f819d03d-2d65-4450-bac9-ed7c1f6ce4e1" d="M535.86,615V533a11.17,11.17,0,0,0-11.13,11.14v59.73A11.16,11.16,0,0,0,535.86,615Z" transform="translate(-7.26 -136.71)"/><path class="b7a3ebe0-57e5-42e5-b3e7-e2e34c086c14" d="M613.74,615V504.8c-8.56,0-15.56,6.73-15.56,15V600C598.18,608.25,605.18,615,613.74,615Z" transform="translate(-7.26 -136.71)"/><path class="fcc3303a-9935-459f-9ffc-a7c1f54d9c7e" d="M625.5,496.1v-81c-5.75,0-10.45,4.94-10.45,11v59C615.05,491.15,619.75,496.1,625.5,496.1Z" transform="translate(-7.26 -136.71)"/><polygon class="a22e82de-94ca-45c8-843c-8f9b7fc7089a" points="224.4 49.16 224.4 47.43 224.09 46.18 224.35 45.03 224.98 42.77 226.08 41.87 227.14 39.89 228.38 39.25 229.75 38.45 234.34 37.37 239.19 36.29 241.52 37.29 244.92 37.88 248.02 40.01 241.81 43.26 232.82 46.32 225.42 51.05 224.4 49.16"/><polygon class="a22e82de-94ca-45c8-843c-8f9b7fc7089a" points="251.12 55.15 249.84 55.33 250.11 56.51 249.23 57.72 248.48 58.24 249.21 58.81 248.95 59.55 249.85 60.73 250.65 62.19 250.85 64.13 250.47 65.12 249.32 66.49 247.94 67.15 245.37 67.55 244.52 68.09 242.8 68.09 241.6 68.34 235.34 66.59 228.03 62.95 229.32 60.25 226.73 58.45 225.33 54.88 225.55 51.75 233.16 47.01 242.12 43.96 248.47 40.64 249.17 43.4 249.1 44.98 249.67 46.83 249.15 48.42 249.3 49.68 250.19 51.06 251.37 54.15 251.12 55.15"/><polygon class="a22e82de-94ca-45c8-843c-8f9b7fc7089a" points="224.51 51.37 224.49 51.75 224.47 51.76 224.49 51.37 224.32 51.06 224.34 51.05 224.51 51.37"/><path class="a22e82de-94ca-45c8-843c-8f9b7fc7089a" d="M278.92,186.75a.71.71,0,0,0-.71-.71h-4.28a.71.71,0,0,0-.71.71v5.63a.71.71,0,0,1-.71.71h-3.28a.7.7,0,0,1-.7-.71v-15.7a.7.7,0,0,1,.7-.71h3.28a.71.71,0,0,1,.71.71v4.79a.71.71,0,0,0,.71.71h4.28a.71.71,0,0,0,.71-.71v-4.79a.71.71,0,0,1,.71-.71h3.28a.7.7,0,0,1,.7.71v15.7a.7.7,0,0,1-.7.71h-3.28a.71.71,0,0,1-.71-.71Z" transform="translate(-7.26 -136.71)"/><path class="a22e82de-94ca-45c8-843c-8f9b7fc7089a" d="M298.41,184.53c0-2.84-1.05-4.84-3.86-4.84s-3.87,2-3.87,4.84,1.05,4.84,3.87,4.84,3.86-2,3.86-4.84m4.84,0c0,5-2.52,8.83-8.7,8.83s-8.69-3.87-8.69-8.83,2.5-8.83,8.69-8.83,8.7,3.86,8.7,8.83" transform="translate(-7.26 -136.71)"/><path class="a22e82de-94ca-45c8-843c-8f9b7fc7089a" d="M319,184.19c0-.39-.13-.42-.3-.07l-2.57,5.46a1.24,1.24,0,0,1-1,.65h-1a1.22,1.22,0,0,1-1-.64l-2.58-5.45c-.17-.35-.3-.32-.3.07v8.17a.71.71,0,0,1-.71.71h-3.28a.71.71,0,0,1-.71-.71v-15.7a.71.71,0,0,1,.71-.71h3.35a1.22,1.22,0,0,1,1,.64l3.73,7.91c.16.36.44.36.6,0l3.7-7.91a1.23,1.23,0,0,1,1-.64H323a.71.71,0,0,1,.71.71v15.7a.71.71,0,0,1-.71.71h-3.28a.71.71,0,0,1-.71-.71Z" transform="translate(-7.26 -136.71)"/><path class="a22e82de-94ca-45c8-843c-8f9b7fc7089a" d="M327.39,193.09a.71.71,0,0,1-.71-.71v-15.7a.71.71,0,0,1,.71-.71h11.4a.71.71,0,0,1,.71.71v2.54a.71.71,0,0,1-.71.71h-6.7a.71.71,0,0,0-.71.71v1.25a.71.71,0,0,0,.71.71h5.18a.71.71,0,0,1,.71.71v2.44a.71.71,0,0,1-.71.71h-5.18a.71.71,0,0,0-.71.71v1.25a.71.71,0,0,0,.71.71h6.84a.71.71,0,0,1,.71.71v2.54a.71.71,0,0,1-.71.71Z" transform="translate(-7.26 -136.71)"/><path class="a22e82de-94ca-45c8-843c-8f9b7fc7089a" d="M349.89,179.61h-2.47a.71.71,0,0,0-.71.71v2.2a.71.71,0,0,0,.71.71h1.74a13.33,13.33,0,0,0,1.41-.08s2.08-.24,2.08-1.73-1.17-1.81-2.76-1.81m-.86,7.87a1.39,1.39,0,0,0-1.07-.6h-.54a.7.7,0,0,0-.71.7v4.8a.71.71,0,0,1-.71.71h-3.27a.71.71,0,0,1-.71-.71v-15.7a.71.71,0,0,1,.71-.71h6.75c.39,0,1,0,1.41,0,0,0,6.53-.24,6.51,5.48a4.79,4.79,0,0,1-4.06,5.14l3.71,5.93c.2.33.05.6-.34.6h-3.59a1.43,1.43,0,0,1-1.08-.61Z" transform="translate(-7.26 -136.71)"/><path class="a22e82de-94ca-45c8-843c-8f9b7fc7089a" d="M360.24,193.09a.71.71,0,0,1-.71-.71v-15.7a.71.71,0,0,1,.71-.71h11.39a.71.71,0,0,1,.71.71v2.54a.71.71,0,0,1-.71.71h-6.7a.71.71,0,0,0-.71.71v1.25a.71.71,0,0,0,.71.71h5.19a.71.71,0,0,1,.71.71v2.44a.71.71,0,0,1-.71.71h-5.19a.71.71,0,0,0-.71.71v1.25a.71.71,0,0,0,.71.71h6.85a.71.71,0,0,1,.71.71v2.54a.71.71,0,0,1-.71.71Z" transform="translate(-7.26 -136.71)"/><g class="ba90cc90-a80a-4512-bc2f-8ab357268d9b"><path class="a22e82de-94ca-45c8-843c-8f9b7fc7089a" d="M316,197.31l-.17.84h-2.37l-1.31,6.22h-1l1.32-6.22h-2.37l.18-.84Z" transform="translate(-7.26 -136.71)"/></g><g class="ba90cc90-a80a-4512-bc2f-8ab357268d9b"><path class="a22e82de-94ca-45c8-843c-8f9b7fc7089a" d="M318,199.23h.82l-.19.88a2.81,2.81,0,0,1,.63-.63,1.54,1.54,0,0,1,1-.37h.27l-.19.92-.14,0H320a1.49,1.49,0,0,0-1.08.42,1.86,1.86,0,0,0-.56,1l-.62,3h-.86Z" transform="translate(-7.26 -136.71)"/></g><g class="ba90cc90-a80a-4512-bc2f-8ab357268d9b"><path class="a22e82de-94ca-45c8-843c-8f9b7fc7089a" d="M325.46,201.25a.61.61,0,0,0,.46-.25.88.88,0,0,0,.12-.33.57.57,0,0,0-.17-.64,1.52,1.52,0,0,0-.86-.2,1.35,1.35,0,0,0-1,.37,1.52,1.52,0,0,0-.33.6h-.8a1.91,1.91,0,0,1,.89-1.33,3,3,0,0,1,1.45-.37,2.4,2.4,0,0,1,1.39.35,1,1,0,0,1,.33,1.07l-.62,3a.37.37,0,0,0,0,.21c0,.06.1.08.22.08h.13l.16,0-.14.64-.32.07h-.29a.56.56,0,0,1-.58-.32,1.09,1.09,0,0,1,0-.47,3,3,0,0,1-.89.6,2.62,2.62,0,0,1-1.13.25,1.32,1.32,0,0,1-1.08-.43,1.23,1.23,0,0,1-.22-1.09,1.78,1.78,0,0,1,.68-1.11,2.64,2.64,0,0,1,1.27-.48Zm-1.7,2.56a2.31,2.31,0,0,0,.93-.21,1.61,1.61,0,0,0,1-1.15l.14-.7a1.5,1.5,0,0,1-.44.17,3.28,3.28,0,0,1-.51.1l-.53.06a2.66,2.66,0,0,0-.75.2,1,1,0,0,0-.55.72.6.6,0,0,0,.15.59A.81.81,0,0,0,323.76,203.81Z" transform="translate(-7.26 -136.71)"/></g><g class="ba90cc90-a80a-4512-bc2f-8ab357268d9b"><path class="a22e82de-94ca-45c8-843c-8f9b7fc7089a" d="M330.55,199.23h.82l-.16.73a3,3,0,0,1,.91-.65,2.33,2.33,0,0,1,.94-.2c.73,0,1.16.26,1.31.76a2.62,2.62,0,0,1,0,1.2l-.7,3.3h-.87l.68-3.24a1.67,1.67,0,0,0,0-.76.66.66,0,0,0-.73-.48,1.9,1.9,0,0,0-.52.06,1.86,1.86,0,0,0-1.1,1,4,4,0,0,0-.23.78l-.57,2.69h-.86Z" transform="translate(-7.26 -136.71)"/></g><g class="ba90cc90-a80a-4512-bc2f-8ab357268d9b"><path class="a22e82de-94ca-45c8-843c-8f9b7fc7089a" d="M337.71,202.76a1.09,1.09,0,0,0,.08.66c.15.28.5.42,1,.42a1.91,1.91,0,0,0,.89-.21.92.92,0,0,0,.5-.65.44.44,0,0,0-.19-.5,3,3,0,0,0-.68-.25l-.65-.17a2.7,2.7,0,0,1-.88-.36.88.88,0,0,1-.35-1,1.92,1.92,0,0,1,.77-1.18,2.47,2.47,0,0,1,1.5-.45,1.57,1.57,0,0,1,1.52.68,1.27,1.27,0,0,1,.12.94h-.81a.89.89,0,0,0-.1-.54,1.07,1.07,0,0,0-.95-.34,1.36,1.36,0,0,0-.78.19.8.8,0,0,0-.36.49.5.5,0,0,0,.22.54,1.54,1.54,0,0,0,.52.21l.54.14a3.51,3.51,0,0,1,1.15.44,1,1,0,0,1,.28,1,2,2,0,0,1-.77,1.19,2.63,2.63,0,0,1-1.68.5,1.77,1.77,0,0,1-1.51-.52,1.73,1.73,0,0,1-.24-1.29Z" transform="translate(-7.26 -136.71)"/></g><g class="ba90cc90-a80a-4512-bc2f-8ab357268d9b"><path class="a22e82de-94ca-45c8-843c-8f9b7fc7089a" d="M344.72,199.25h.84l-.15.68a3,3,0,0,1,.68-.54,2.14,2.14,0,0,1,1.09-.29,1.51,1.51,0,0,1,1.33.67,2.46,2.46,0,0,1,.2,1.92,3.75,3.75,0,0,1-1.38,2.4,2.4,2.4,0,0,1-1.39.45,1.47,1.47,0,0,1-.91-.25,1.56,1.56,0,0,1-.41-.5l-.55,2.63h-.86Zm3.1,2.52a2.77,2.77,0,0,0,0-1.06.94.94,0,0,0-1-.85,1.59,1.59,0,0,0-1.42.9A4.23,4.23,0,0,0,345,202a2.33,2.33,0,0,0,0,1,.94.94,0,0,0,1.05.8,1.51,1.51,0,0,0,1.1-.51A3,3,0,0,0,347.82,201.77Z" transform="translate(-7.26 -136.71)"/></g><g class="ba90cc90-a80a-4512-bc2f-8ab357268d9b"><path class="a22e82de-94ca-45c8-843c-8f9b7fc7089a" d="M356.09,201.69a4.25,4.25,0,0,1-1,2.06,2.7,2.7,0,0,1-2,.81,1.68,1.68,0,0,1-1.52-.72,2.47,2.47,0,0,1-.22-1.93,3.91,3.91,0,0,1,1.09-2.06,2.7,2.7,0,0,1,1.92-.77,1.9,1.9,0,0,1,1.54.66A2.26,2.26,0,0,1,356.09,201.69Zm-.91,0a2.44,2.44,0,0,0,0-1.17,1,1,0,0,0-1.1-.71,1.52,1.52,0,0,0-1.27.61,3.33,3.33,0,0,0-.67,1.46,2.21,2.21,0,0,0,.07,1.37,1,1,0,0,0,1,.54,1.49,1.49,0,0,0,1.31-.65A3.84,3.84,0,0,0,355.18,201.71Z" transform="translate(-7.26 -136.71)"/></g><g class="ba90cc90-a80a-4512-bc2f-8ab357268d9b"><path class="a22e82de-94ca-45c8-843c-8f9b7fc7089a" d="M359.61,199.23h.81l-.18.88a2.72,2.72,0,0,1,.62-.63,1.54,1.54,0,0,1,1-.37h.27l-.19.92-.13,0h-.14a1.5,1.5,0,0,0-1.09.42,1.93,1.93,0,0,0-.56,1l-.62,3h-.86Z" transform="translate(-7.26 -136.71)"/></g><g class="ba90cc90-a80a-4512-bc2f-8ab357268d9b"><path class="a22e82de-94ca-45c8-843c-8f9b7fc7089a" d="M365.28,197.79h.86l-.3,1.44h.82l-.15.7h-.82l-.71,3.36c0,.18,0,.3.1.36a.66.66,0,0,0,.33,0h.3l-.14.68a1.65,1.65,0,0,1-.32.06,2,2,0,0,1-.35,0c-.4,0-.65-.1-.75-.31a1.16,1.16,0,0,1,0-.8l.72-3.41h-.69l.15-.7H365Z" transform="translate(-7.26 -136.71)"/></g><g class="ba90cc90-a80a-4512-bc2f-8ab357268d9b"><path class="a22e82de-94ca-45c8-843c-8f9b7fc7089a" d="M369.24,202.76a1,1,0,0,0,.08.66c.15.28.5.42,1,.42a1.91,1.91,0,0,0,.89-.21.92.92,0,0,0,.5-.65.44.44,0,0,0-.19-.5,3,3,0,0,0-.68-.25l-.65-.17a2.88,2.88,0,0,1-.89-.36.89.89,0,0,1-.34-1,1.92,1.92,0,0,1,.77-1.18,2.47,2.47,0,0,1,1.5-.45,1.57,1.57,0,0,1,1.52.68,1.32,1.32,0,0,1,.12.94h-.81a.89.89,0,0,0-.1-.54,1.07,1.07,0,0,0-.95-.34,1.36,1.36,0,0,0-.78.19.8.8,0,0,0-.36.49.5.5,0,0,0,.22.54,1.54,1.54,0,0,0,.52.21l.54.14a3.61,3.61,0,0,1,1.15.44,1,1,0,0,1,.28,1,2,2,0,0,1-.77,1.19,2.65,2.65,0,0,1-1.68.5,1.77,1.77,0,0,1-1.51-.52,1.73,1.73,0,0,1-.24-1.29Z" transform="translate(-7.26 -136.71)"/></g></g><g id="b231cc6a-db48-4168-abfa-dd6b3a6f0163" data-name="Contours"><path class="bb911f1d-bf7a-4af5-b11f-7b300260c4f8" d="M489,300.92h-7.89a11.56,11.56,0,0,0-11.42,11.68v9.18H455.55l-.33,0c-.91-11.5-1.89-20.69-2.57-26.71a11.44,11.44,0,0,0-.42-1.91,1.74,1.74,0,0,0,.71-.78c.26-.6,6.18-14.76-3.77-30.53.88-5.11,3.46-21.24,4.86-41.83,2-30,.72-55.38-3.93-75.52a8.43,8.43,0,0,0-3.73-5.17c-4.76-3-16.5-5.75-63.25,5.63-29.36,7.2-78.58,5.89-79.16,5.87,0,0-4,.09-10.21.09-16.63,0-47.7-.78-68.95-6-46.76-11.38-58.49-8.66-63.25-5.63a8.42,8.42,0,0,0-3.74,5.21c-10.6,46.08-.81,107.33.78,116.6-10.37,14.76-6.42,28.34-5.56,30.8a9.15,9.15,0,0,0-1.52,4.79l-.09,2.5c-.21,6.18-.48,13.81-.69,22.52H138.26V312.6a11.57,11.57,0,0,0-11.43-11.68H119a11.57,11.57,0,0,0-11.43,11.68v10.84a11.74,11.74,0,0,0,5.61,10,11.74,11.74,0,0,0-5.53,10V381A11.57,11.57,0,0,0,119,392.68h7.89a11.44,11.44,0,0,0,10.9-8.26h11.8c0,1.6,0,3.19,0,4.81,0,2.26,0,4.55,0,6.85v.15h0l.33,100V497c.08,7.59.16,15.45.31,23.45h0c.16,9.21.38,18.54.61,28.43l.05,2s0,.08,0,.12l.1,4.09c.21,8.76.42,17.82.7,27a20.58,20.58,0,0,0,.71,4.77,21.92,21.92,0,0,0,6,10.09v27c0,12,2.58,15.28,20.75,15.28h2.61c14.75,0,21.29-.68,25-2.61,4.35-2.28,4.35-6.16,4.35-11.11V604H393.84v18c0,7.54,0,12.09,3.91,14.66,3.58,2.35,10.08,2.6,23.05,2.6h2.86c10.88,0,16.07-.94,19.13-3.48,3.47-2.88,3.74-7.53,3.74-13.78V595.4a21.45,21.45,0,0,0,4.52-8.65,16,16,0,0,0,.63-3.6c.76-9.51,1.62-20.7,2.31-31.88a1.86,1.86,0,0,0,.06-.34l.27-4.4c.56-9,1.09-17.54,1.51-26h0l.13-2.64c.37-7.48.72-14.56,1-21.57h0s0,0,0,0l1.45-99.77a1.59,1.59,0,0,0,.08-.53s0-.05,0-.07,0-.05,0-.08h0a1.93,1.93,0,0,0-.08-.43c-.07-3.76-.14-7.41-.2-11h11.95a11.42,11.42,0,0,0,10.9,8.26H489A11.56,11.56,0,0,0,500.39,381V343.46a11.73,11.73,0,0,0-5.57-10,11.72,11.72,0,0,0,5.57-10V312.6A11.56,11.56,0,0,0,489,300.92ZM110.86,323.44V312.6a8.23,8.23,0,0,1,8.09-8.34h7.88a8.23,8.23,0,0,1,8.09,8.34v10.84a8.23,8.23,0,0,1-8.09,8.34H119A8.23,8.23,0,0,1,110.86,323.44ZM135,381a10.21,10.21,0,0,1-.14,1.49,8.15,8.15,0,0,1-7.94,6.85H119a8.23,8.23,0,0,1-8.09-8.34V343.46a8.23,8.23,0,0,1,8.09-8.34h7.89a8.22,8.22,0,0,1,8.08,8.34Zm14.65.08H138.34V343.46a11.71,11.71,0,0,0-5.61-10,11.73,11.73,0,0,0,5.4-8.32h12.52C150.18,343.74,149.86,362.09,149.65,381.08Zm297.2-235.76c9.59,41.54,2.07,96.91-.43,112.7-7.2-9-18.83-16.46-34.66-22.14,8-32.73,20.23-74.4,34-92.7A5,5,0,0,1,446.85,145.32ZM224,148.23c21.59,5.27,53,6.05,69.74,6.05,6.29,0,10.25-.08,10.2-.08.5,0,50.17,1.34,80-6,31.23-7.6,51-9.9,59-6.87-14,18.84-26.26,60.56-34.32,93.42-25.26-8.41-60.29-12.68-104.18-12.68-43.43,0-78.39,4.19-104,12.46-8.59-32.79-21.46-74.45-35.37-93.22C173.06,138.34,192.85,140.65,224,148.23Zm-66.94,69.45c-1.79-28.74-.44-53.08,4-72.32a5.17,5.17,0,0,1,1.19-2.23c13.67,18.24,26.48,59.83,35,92.5-16.1,5.59-28.15,13-35.88,22C160.33,250.88,158.2,235.84,157.07,217.68Zm4.69,44.77c7.34-10,20.14-18.17,38.05-24.17,25.37-8.53,60.57-12.85,104.6-12.85,44.52,0,79.79,4.41,104.82,13.09C427,244.67,439.38,253,446,263.13c7.87,12.05,5.45,23.07,4.29,26.71-5.26-6-20-9.4-49.86-11.52-22.5-1.63-54.38-2.42-97.44-2.42-40,0-70.67.76-93.78,2.34-29.82,2.07-46.59,5.48-53.54,10.91a29.14,29.14,0,0,1-.76-6.82A33.39,33.39,0,0,1,161.76,262.45ZM152.9,400.74a166.91,166.91,0,0,1,14,18.58.75.75,0,0,1,.07.12,1.64,1.64,0,0,0,.84.65c.4.64.81,1.27,1.21,1.93.95,1.53,1.9,3.13,2.85,4.76.23.38.45.77.68,1.16,2.56,4.46,5.12,9.24,7.64,14.29a1.62,1.62,0,0,0,.15.42c.59,1.16,1.19,2.34,1.79,3.55a403,403,0,0,1,19.24,48.32H153.21Zm284.07,16-1.71,0H435l-1.87-.05H433c-9.73-.22-24.14-.32-38.37.36l-1.41.08h-.26c-22,1.14-36.19,3.86-42.21,8.1l-.05,0c-.19.14-.37.27-.54.41l-.11.08c-.2.16-.39.33-.56.49a6.74,6.74,0,0,0-2.33,4.76,6.49,6.49,0,0,0,2.16,4.92c.16.15.32.3.5.45l.06,0c4.62,3.86,15.7,6.3,33,7.28l.54,0,.74,0c15.39.81,31.48.29,39.2-.07-3.12,6.22-6.1,12.68-8.87,19.25h0l0,0a1,1,0,0,1-.05.12.53.53,0,0,1-.06.14h0c-2.17,5.08-4.22,10.22-6.07,15.27-3.81,10.39-5.54,16.86-5.6,17.09l0,.11c-.32,1-.62,2.09-.92,3.14-.2.67-.39,1.35-.58,2-.12.43-.25.86-.37,1.29-.07.27-.15.53-.23.8l-.23.81c-.72,2.6-1.35,5-1.94,7.29-.16.61-.31,1.22-.46,1.83-.06.25-.12.5-.19.75s-.13.55-.2.82c-.18.75-.37,1.5-.55,2.26-.25,1-.5,2.08-.74,3.13a1.55,1.55,0,0,0,0,.21c-2.27,9.92-4.2,20.15-5.76,30.4a.45.45,0,0,0,0,.11v0a13.39,13.39,0,0,1-.28,1.7l0,.16c-1.1,7.59-20.74,10.9-53.87,9.09a594.35,594.35,0,0,0-64.57,0c-33.13,1.81-52.77-1.5-53.87-9.06l0-.19c-.07-.49-.14-1-.24-1.52a1.71,1.71,0,0,0-.1-.51c-1.45-10.14-3.34-20.1-5.59-29.62,0-.1,0-.21,0-.31a1.7,1.7,0,0,0-.33-1c-1.73-7.48-3.78-15.22-6.11-23,0-.06,0-.11,0-.17a1.63,1.63,0,0,0-.38-1.05l-.13-.43-.35-1.11a327.39,327.39,0,0,0-19.45-48.87l0,0c-.16-.32-.32-.66-.48-1,1.76.09,4.28.2,7.34.29H192l.94,0h.17l.89,0h.18l.92,0h.18l.94,0h.21l.94,0h.22l1.14,0h0l3.8.05H212l1.43,0h.64l1.27,0,.72,0,1.11,0,.66,0,1.67-.06.51,0,1.26-.05.68,0,1.18-.06.61,0,1.67-.09.56,0,1.22-.08.64,0,1.27-.1.48,0,1.66-.14.56-.05,1.18-.11.6-.06,1.35-.14.34,0,1.6-.18.54-.07,1.13-.15.54-.07,1.5-.22.22,0,1.38-.22.49-.08,1.09-.2.44-.08,1.43-.29.26-.05L247,441l.44-.11,1-.25.35-.09,1.26-.35.29-.09.95-.29.37-.13.91-.32.24-.09,1.07-.42.26-.12.76-.35.3-.14c.27-.14.53-.27.79-.42l.12-.06c.29-.17.57-.34.83-.51l.21-.15c.2-.13.38-.26.56-.4l.21-.16c.23-.18.45-.37.65-.56s.36-.37.52-.56a6.2,6.2,0,0,0,1.66-4.38,4.48,4.48,0,0,0,0-.64,6.88,6.88,0,0,0-2.26-4.09l-.13-.11c-.13-.12-.26-.24-.41-.36l-.27-.21-.33-.25-.34-.23-.32-.22-.41-.25-.31-.18-.5-.27-.26-.15-.62-.3-.2-.1-.78-.35-.08,0c-17-7.25-60.51-7.08-82.33-6.48l-1.54,0A141.24,141.24,0,0,0,155.37,398c16.22,1,75.11,4.33,151,4.33H312c49.81,0,97.16-1.53,140.9-4.49l-.06.08a182.8,182.8,0,0,0-14.1,18.89l-1.61,0Zm0,3.34-.63,1c-.76,1.21-1.52,2.41-2.25,3.62-.37.6-.72,1.2-1.08,1.79-.59,1-1.18,2-1.75,3l-1.12,1.94c-.53.92-1,1.84-1.56,2.75l-1.07,1.94L426,438.88c-.24.46-.5.93-.74,1.38h-.11l-.82,0-.37,0-.73,0-.46,0-.68,0-.56,0-.56,0-.73,0-.44,0-.83,0-.38,0-.91,0h-.31l-1,0h-.16l-1.16,0h-.13l-1.21,0h-.08l-1.27,0h0c-7.59.17-15.86.17-23.8-.13h0l-1.37-.05h0l-1.33-.05h-.08l-1.28-.06h-.11l-1.26-.07h-.11l-1.25-.08h-.11l-1.21-.08h-.15l-1.18-.09h-.15l-1.14-.09h-.2l-1.09-.1h-.21l-1.06-.1-.23,0-1-.11-.23,0-1-.11-.25,0-.94-.11-.29,0-.91-.11-.29,0-.89-.11-.29,0-.85-.13-.31,0-.81-.13-.32-.05-.76-.12-.35-.06-.72-.13-.34-.06-.69-.14-.36-.07-.65-.13-.36-.08-.63-.14-.35-.08-.6-.14-.35-.09-.56-.14-.35-.1-.53-.15-.34-.09-.51-.16-.33-.1-.48-.16-.32-.11-.46-.17-.31-.11-.42-.17-.3-.12-.41-.18-.27-.12-.37-.18-.27-.13-.35-.19-.24-.13-.34-.21-.21-.13-.31-.21-.19-.13-.29-.23-.16-.13c-.15-.12-.28-.24-.41-.36a3.22,3.22,0,0,1-1.15-2.44,3.49,3.49,0,0,1,1.28-2.42c.19-.18.41-.36.64-.54l.14-.11c.24-.17.48-.34.75-.5l.14-.09.8-.45.12-.06c.3-.16.63-.31,1-.46l.23-.1,1.07-.45.11,0c.36-.14.73-.27,1.11-.4l.23-.08,1.26-.4.27-.08c.43-.13.87-.25,1.33-.37l.07,0,1.47-.37.32-.08,1.53-.34.25-.05,1.49-.3.26-.05L368,423l.36-.06,1.8-.29h.09c.59-.1,1.2-.19,1.82-.27l.35-.05,1.91-.26.34,0,1.9-.23.17,0,2.07-.22.4,0,2.13-.21h.17l2.12-.19.29,0,2.24-.18.36,0c1.54-.12,3.11-.22,4.71-.31l.35,0,2.4-.13h.22l2.43-.12h.12l2.52-.11h.3c1.72-.06,3.45-.12,5.2-.16h.18l2.62,0h.2l5.32-.08h.25c1.82,0,3.63,0,5.45,0h.05l4.5,0h.17l4.46.05H428l4.31.08h.28l4.15.1ZM182.92,440.28l-.85-1.67-.43-.85c-.51-1-1-2-1.52-2.94-.09-.15-.17-.3-.25-.46l-1.28-2.4-.53-1-1-1.84c-.2-.35-.39-.7-.59-1-.32-.58-.65-1.16-1-1.73l-.58-1c-.34-.59-.68-1.17-1-1.75-.17-.3-.35-.6-.53-.89-.41-.69-.83-1.38-1.24-2.05l-.3-.5-.06-.09h.2l2.91-.08h.47l3-.05h.39l3,0h.38l3.08,0h7.11l3.19,0h.18l3.21,0H199l3.23.07h.09l3.24.09h0c6.55.2,12.86.53,18.68,1h.09l2.75.24.16,0,2.6.26.22,0,2.46.28.25,0,2.35.31.26,0,2.23.33.27,0L240,423l.27.05,2,.37.26.06c.64.12,1.27.26,1.87.39l.26.06c.6.14,1.19.28,1.75.43l.23.06,1.64.45.21.06c.52.16,1,.32,1.51.49l.18.06c.48.17.95.34,1.39.52l.14.06c.44.18.87.37,1.27.56l.1.05c.4.19.78.39,1.13.59l.07,0c.35.21.69.42,1,.64l0,0a8.81,8.81,0,0,1,.85.7,3.48,3.48,0,0,1,1.27,2.39,3.28,3.28,0,0,1-1.17,2.45l-.38.33-.16.13-.22.17c-2.12,1.58-6.34,3.3-14.56,4.6l-.24,0-1,.16-.6.08-.67.09-.81.11-.31,0-2.23.26H235l-1.09.11-.42,0-1,.1-.84.08-1.06.09-1.38.11-.3,0c-3.3.25-7,.44-11.07.58C201.86,441.19,186.75,440.48,182.92,440.28Zm-29.69,57.58h49.13l.69,2.37c.28,1,.57,1.95.84,2.91.5,1.78,1,3.54,1.45,5.3.24.9.47,1.79.7,2.69s.51,2,.75,2.92.44,1.82.66,2.73c.16.64.31,1.29.47,1.93H153.51C153.38,511.62,153.3,504.64,153.23,497.86Zm.91,50.9c-.21-9.27-.42-18.06-.57-26.71h55.12c.26,1.11.51,2.23.76,3.36s.48,2.06.7,3.11q.6,2.84,1.15,5.72c.28,1.43.54,2.86.8,4.3s.49,2.71.72,4.07c.19,1.14.37,2.29.55,3.44l.48,3.11h-59.7Zm53.59,76.82c0,5-.12,6.84-2.56,8.11-3.07,1.61-9.64,2.24-23.43,2.24h-2.61c-17.41,0-17.41-2.77-17.41-11.95V599.65A25.84,25.84,0,0,0,176.1,604h31.63ZM443.19,622c0,6.3-.36,9.41-2.53,11.21-2.33,1.93-7.25,2.72-17,2.72H420.8c-10.93,0-18.3-.15-21.21-2.06-2.32-1.52-2.41-4.55-2.41-11.87V604h30.08a25.8,25.8,0,0,0,15.93-5.38Zm5.17-39.11a14.09,14.09,0,0,1-.52,3,18.36,18.36,0,0,1-4.12,7.66l-.13.15a22,22,0,0,1-16.33,7H176.1c-9.76,0-18.2-6-20.51-14.64a17.46,17.46,0,0,1-.58-4c-.28-9.17-.5-18.23-.71-27l-.06-2.5h60.15c0,.1,0,.19,0,.28l0,.21c1.21,8.35,14.32,12.46,39.95,12.46q7.91,0,17.4-.52a592.81,592.81,0,0,1,64.21,0c37,2,55.79-1.85,57.34-11.86a5.72,5.72,0,0,0,.11-.57h57.1C449.89,563.17,449.08,573.8,448.36,582.89ZM451,546.32l-.17,2.84H394l.51-3.17.54-3.27c.27-1.54.55-3.07.83-4.6.16-.87.31-1.74.48-2.61q.66-3.5,1.38-7c.21-1,.44-2,.66-3s.5-2.33.76-3.48l36.45.05,16.81,0C452,530,451.51,537.94,451,546.32Zm1.64-28.57-.05,1-18.59,0-34.09-.06.06-.23c1.17-5,2.49-10,3.93-15.16l.3-1.05c.42-1.46.84-2.93,1.27-4.41l23.77,0,24.34,0C453.29,504.37,453,510.89,452.63,517.75Zm1-23.15-19.78,0-27.4,0c1.56-5,3.23-10,5-14.85,1.82-5,3.81-10.12,5.89-15.08.06-.14.12-.27.15-.36l1.4-3.22c.19-.42.4-.87.59-1.3.31-.7.62-1.38.94-2.09l.69-1.48c.32-.69.63-1.37,1-2.07s.54-1.11.81-1.67l1-2,.87-1.74,1-2.08.93-1.8,1.1-2.14,1-1.82c.4-.73.78-1.46,1.19-2.21s.69-1.24,1-1.86.82-1.5,1.25-2.25.73-1.28,1.1-1.91.86-1.51,1.31-2.28l1.17-1.94c.45-.77.91-1.53,1.38-2.3s.81-1.31,1.22-2,1-1.54,1.45-2.31.86-1.33,1.29-2l1.51-2.32,1.36-2c.53-.77,1-1.55,1.58-2.32l1.43-2c.54-.76,1.08-1.53,1.64-2.3s1-1.33,1.49-2,1.14-1.53,1.72-2.29l1.55-2c.53-.67,1.05-1.34,1.58-2ZM313,399h-2.7c-2.66,0-5.33,0-8,0-77.21-.24-135.87-3.89-149.38-4.81,0-1.66,0-3.31,0-4.95,0-2,0-4,0-6a1.71,1.71,0,0,0,.09-.51,2,2,0,0,0-.08-.49c.2-19.78.54-38.85,1-58.27a1.63,1.63,0,0,0,.1-.55A1.84,1.84,0,0,0,154,323c.21-9.16.49-17.15.71-23.59l.09-2.48a5.77,5.77,0,0,1,1.49-3.77l.23-.27c5-5.47,22.34-9.17,52.91-11.3,23-1.56,53.63-2.33,93.55-2.33,43,0,74.78.79,97.2,2.42,29.1,2.06,44.38,5.56,48.11,11a6,6,0,0,1,1,2.81c.7,6.24,1.74,15.94,2.68,28.11,1.37,17.59,2.32,37.47,2.84,59.07.07,3.78.14,7.63.21,11.59C405.6,397.68,356.65,398.92,313,399ZM455.48,325.1h14.31a11.67,11.67,0,0,0,5.44,8.34,11.73,11.73,0,0,0-5.57,10v37.62H458.15m38.91-37.62V381a8.23,8.23,0,0,1-8.09,8.34h-7.89a8.16,8.16,0,0,1-7.95-6.88l0-.16A4.67,4.67,0,0,1,473,381V343.46a8.23,8.23,0,0,1,8.09-8.34H489A8.23,8.23,0,0,1,497.06,343.46Zm0-20a8.23,8.23,0,0,1-8.09,8.34h-7.89a8.23,8.23,0,0,1-8.09-8.34V312.6a8.23,8.23,0,0,1,8.09-8.34H489a8.23,8.23,0,0,1,8.09,8.34Z" transform="translate(-7.26 -136.71)"/><path class="bb911f1d-bf7a-4af5-b11f-7b300260c4f8" d="M234.33,457.08a10.18,10.18,0,0,0-3.39,7.57c0,5.87,5.13,10.63,11.43,10.63H365.54a11.37,11.37,0,0,0,8-3,10.19,10.19,0,0,0,3.39-7.58c0-5.86-5.13-10.62-11.43-10.62H242.37A11.81,11.81,0,0,0,234.33,457.08Zm139.22,7.57a7,7,0,0,1-2.33,5.15,8.24,8.24,0,0,1-5.68,2.15H242.37c-4.46,0-8.09-3.27-8.09-7.3a6.91,6.91,0,0,1,2.3-5.11,8.47,8.47,0,0,1,5.79-2.18H365.46C369.92,457.36,373.55,460.63,373.55,464.65Z" transform="translate(-7.26 -136.71)"/><path class="bb911f1d-bf7a-4af5-b11f-7b300260c4f8" d="M363.93,486.88h-120A11.42,11.42,0,0,0,236,490a10.29,10.29,0,0,0-3.3,7.56,10.93,10.93,0,0,0,11.18,10.63H364a11,11,0,0,0,7.8-3.06,10.31,10.31,0,0,0,3.3-7.57C375.11,491.65,370.09,486.88,363.93,486.88Zm5.56,15.79a7.79,7.79,0,0,1-5.48,2.14H243.9a7.6,7.6,0,0,1-7.84-7.3,7,7,0,0,1,2.25-5.13,8.09,8.09,0,0,1,5.59-2.16h120a7.59,7.59,0,0,1,7.84,7.29A7,7,0,0,1,369.49,502.67Z" transform="translate(-7.26 -136.71)"/><path class="bb911f1d-bf7a-4af5-b11f-7b300260c4f8" d="M359.64,518.8H248.19a10.34,10.34,0,0,0-7.44,3.11,10.66,10.66,0,0,0,7.44,18.14H359.71a10.14,10.14,0,0,0,7.37-3.11,10.66,10.66,0,0,0-7.44-18.14Zm5,15.83a6.72,6.72,0,0,1-5,2.09H248.19a7.23,7.23,0,0,1-7.16-7.3,7.31,7.31,0,0,1,2.09-5.17,7.06,7.06,0,0,1,5.07-2.12H359.64a7.23,7.23,0,0,1,7.16,7.29A7.34,7.34,0,0,1,364.68,534.63Z" transform="translate(-7.26 -136.71)"/><path class="bb911f1d-bf7a-4af5-b11f-7b300260c4f8" d="M174.15,567c-6.48,0-11.75,4.86-11.75,10.84s5.27,10.84,11.75,10.84,11.75-4.86,11.75-10.84S180.63,567,174.15,567Zm0,18.35c-4.64,0-8.41-3.37-8.41-7.51s3.77-7.51,8.41-7.51,8.41,3.37,8.41,7.51S178.79,585.36,174.15,585.36Z" transform="translate(-7.26 -136.71)"/><path class="bb911f1d-bf7a-4af5-b11f-7b300260c4f8" d="M199.76,570.34c-4.46,0-8.09,3.37-8.09,7.51s3.63,7.51,8.09,7.51,8.09-3.37,8.09-7.51S204.22,570.34,199.76,570.34Zm0,11.68a4.21,4.21,0,1,1,0-8.34c2.62,0,4.76,1.87,4.76,4.17S202.38,582,199.76,582Z" transform="translate(-7.26 -136.71)"/><path class="bb911f1d-bf7a-4af5-b11f-7b300260c4f8" d="M432,588.69c6.48,0,11.75-4.86,11.75-10.84S438.45,567,432,567s-11.75,4.86-11.75,10.84S425.49,588.69,432,588.69Zm0-18.35c4.64,0,8.41,3.37,8.41,7.51s-3.77,7.51-8.41,7.51-8.41-3.37-8.41-7.51S427.33,570.34,432,570.34Z" transform="translate(-7.26 -136.71)"/><path class="bb911f1d-bf7a-4af5-b11f-7b300260c4f8" d="M406.36,585.36c4.46,0,8.09-3.37,8.09-7.51s-3.63-7.51-8.09-7.51-8.09,3.37-8.09,7.51S401.9,585.36,406.36,585.36Zm0-11.68a4.21,4.21,0,1,1,0,8.34c-2.62,0-4.76-1.87-4.76-4.17S403.74,573.68,406.36,573.68Z" transform="translate(-7.26 -136.71)"/><path class="bb911f1d-bf7a-4af5-b11f-7b300260c4f8" d="M333.92,574.6H274.07a5.63,5.63,0,0,0-5.57,5.67v6.09a5.63,5.63,0,0,0,5.57,5.67h59.77a5.67,5.67,0,0,0,5.65-5.67v-6.09A5.63,5.63,0,0,0,333.92,574.6Zm2.23,11.76a2.35,2.35,0,0,1-2.31,2.33H274.07a2.28,2.28,0,0,1-2.23-2.33v-6.09a2.29,2.29,0,0,1,2.23-2.34h59.85a2.29,2.29,0,0,1,2.23,2.34Z" transform="translate(-7.26 -136.71)"/><path class="bb911f1d-bf7a-4af5-b11f-7b300260c4f8" d="M182.15,632.94a1.66,1.66,0,0,0,1.67-1.66V610.06a1.67,1.67,0,0,0-3.34,0v21.22A1.66,1.66,0,0,0,182.15,632.94Z" transform="translate(-7.26 -136.71)"/><path class="bb911f1d-bf7a-4af5-b11f-7b300260c4f8" d="M190.27,632.94a1.66,1.66,0,0,0,1.67-1.66V610.06a1.67,1.67,0,0,0-3.34,0v21.22A1.66,1.66,0,0,0,190.27,632.94Z" transform="translate(-7.26 -136.71)"/><path class="bb911f1d-bf7a-4af5-b11f-7b300260c4f8" d="M176.43,611.61a3.22,3.22,0,0,0-2.13-2.82l-5.53-2.23a1.67,1.67,0,0,0-1.25,3.1l5.1,2.05-3.38,1.75a3.08,3.08,0,0,0-1.8,2.93,3.31,3.31,0,0,0,2.36,2.81L172,620l-2.58,1.2a3.12,3.12,0,0,0-1.92,3,3.21,3.21,0,0,0,2.33,2.79l2,.69-4.79,1.9a1.67,1.67,0,1,0,1.23,3.1l5.27-2.09a3.17,3.17,0,0,0,2.19-3,3.21,3.21,0,0,0-2.32-2.92l-2-.7,2.54-1.19a3.11,3.11,0,0,0,2-2.94,3.23,3.23,0,0,0-2.38-2.85l-2.31-.8,3.34-1.72A3.08,3.08,0,0,0,176.43,611.61Z" transform="translate(-7.26 -136.71)"/><path class="bb911f1d-bf7a-4af5-b11f-7b300260c4f8" d="M195.34,626.25a3.28,3.28,0,0,0,1.75,3.09l3.82,2.19a1.67,1.67,0,1,0,1.66-2.89l-3.78-2.17.05,0,2.68-1a3.4,3.4,0,0,0,2.33-3,3.3,3.3,0,0,0-1.91-3.08l-3-1.57a1.62,1.62,0,0,0,.41-.22l3.12-2.35a1.67,1.67,0,0,0-2-2.67l-3,2.23a3.22,3.22,0,0,0-.18,5.93l3,1.58-2.71,1A3.49,3.49,0,0,0,195.34,626.25Z" transform="translate(-7.26 -136.71)"/><path class="bb911f1d-bf7a-4af5-b11f-7b300260c4f8" d="M422.76,608.39a1.67,1.67,0,0,0-1.67,1.67v21.22a1.67,1.67,0,0,0,3.34,0V610.06A1.67,1.67,0,0,0,422.76,608.39Z" transform="translate(-7.26 -136.71)"/><path class="bb911f1d-bf7a-4af5-b11f-7b300260c4f8" d="M414.64,608.39a1.67,1.67,0,0,0-1.67,1.67v21.22a1.67,1.67,0,0,0,3.34,0V610.06A1.67,1.67,0,0,0,414.64,608.39Z" transform="translate(-7.26 -136.71)"/><path class="bb911f1d-bf7a-4af5-b11f-7b300260c4f8" d="M430.31,614.45l3.35,1.72-2.31.79a3.25,3.25,0,0,0-2.38,2.86,3.1,3.1,0,0,0,2,2.93l2.57,1.2-2,.69a3.23,3.23,0,0,0-2.33,2.93,3.16,3.16,0,0,0,2.17,3l5.29,2.1a1.67,1.67,0,0,0,1.23-3.1l-4.79-1.9L435,627a3.22,3.22,0,0,0,2.35-2.8,3.13,3.13,0,0,0-1.93-3l-2.57-1.2,2.26-.77a3.31,3.31,0,0,0,2.34-2.81,3.09,3.09,0,0,0-1.81-2.94l-3.37-1.74,5.1-2.05a1.67,1.67,0,0,0-1.25-3.1l-5.56,2.25a3.19,3.19,0,0,0-2.1,2.8A3.09,3.09,0,0,0,430.31,614.45Z" transform="translate(-7.26 -136.71)"/><path class="bb911f1d-bf7a-4af5-b11f-7b300260c4f8" d="M407.26,623.33l-2.68-1,3-1.58a3.22,3.22,0,0,0-.19-5.93l-3-2.23a1.67,1.67,0,1,0-2,2.67l3.12,2.35a1.62,1.62,0,0,0,.41.22l-3,1.56a3.31,3.31,0,0,0-1.93,3.08,3.41,3.41,0,0,0,2.33,3l2.66,1,.06,0-3.77,2.17a1.67,1.67,0,0,0,1.66,2.89l3.83-2.2a3.28,3.28,0,0,0,1.74-3.08A3.5,3.5,0,0,0,407.26,623.33Z" transform="translate(-7.26 -136.71)"/><path class="bb911f1d-bf7a-4af5-b11f-7b300260c4f8" d="M554.76,612.33a3,3,0,0,1-.09.74h3.51a3.57,3.57,0,0,1-.09-.74V535.27a2.87,2.87,0,0,1,0-.41h-3.42c0,.14,0,.27,0,.42Z" transform="translate(-7.26 -136.71)"/><path class="bb911f1d-bf7a-4af5-b11f-7b300260c4f8" d="M660.94,454.35a4,4,0,0,1-4-4V418.05a4,4,0,0,1,.61-2.1H653a3.91,3.91,0,0,1,.63,2.11V450.4a4,4,0,0,1-3.95,4H617.35a3.87,3.87,0,0,1-2.29-.74v4.82a3.94,3.94,0,0,1,2.29-.74h32.36a4,4,0,0,1,3.95,3.95V494a3.31,3.31,0,0,1-.06.55h3.45A3.31,3.31,0,0,1,657,494V461.64a4,4,0,0,1,4-3.95H693.3a3.92,3.92,0,0,1,2.22.69c0-1.57,0-3.15,0-4.73a3.94,3.94,0,0,1-2.24.7Z" transform="translate(-7.26 -136.71)"/><path class="bb911f1d-bf7a-4af5-b11f-7b300260c4f8" d="M679.15,564.9a4,4,0,0,1,4-3.95h23.12a3.94,3.94,0,0,1,2.22.68c0-1.57,0-3.14,0-4.71a3.88,3.88,0,0,1-2.23.69H683.1a4,4,0,0,1-4-4V507.08a4,4,0,0,1,.6-2.07l-4.54,0a3.93,3.93,0,0,1,.6,2.09v46.58a3.94,3.94,0,0,1-3.94,4h-35.7a4,4,0,0,1-3.95-4V507.08a3.88,3.88,0,0,1,.71-2.25h-4.76a3.9,3.9,0,0,1,.72,2.26v46.58a4,4,0,0,1-3.95,4H601.81a3.92,3.92,0,0,1-2.28-.73v4.8a3.92,3.92,0,0,1,2.28-.73h23.13a4,4,0,0,1,3.95,3.95V612a3.35,3.35,0,0,1-.2,1.1h3.73a3.4,3.4,0,0,1-.2-1.1V564.9a4,4,0,0,1,3.95-3.95h35.7a3.94,3.94,0,0,1,3.94,3.95V612a3.39,3.39,0,0,1-.19,1.1h3.73a3.4,3.4,0,0,1-.2-1.1Z" transform="translate(-7.26 -136.71)"/><path class="f7205ae6-3c3b-4df2-af68-3dbeb96b2641" d="M694.67,501.73l-71.87-.27h0c-8.92.11-15.79,2.72-20.42,7.76-6.62,7.22-6.22,16.78-6.16,17.76v70.29a16.42,16.42,0,0,0,5,12.35c6.61,6.34,17.67,6.81,20.78,6.81H689.8c16.64,0,21.57-10.73,21.84-16.48,0-.51.2-51.45.2-73,0-9.26-2.26-16.17-6.73-20.56A15.64,15.64,0,0,0,694.67,501.73Zm-4.89,111.35h-67c-.13,0-12.63.45-19.22-5.87a13.21,13.21,0,0,1-4-9.94V526.8c0-.09-.55-9,5.31-15.35,4-4.32,10-6.56,18-6.65l5.37,0h4.76l42.28.16,4.54,0,14.93.05a12.43,12.43,0,0,1,8.15,3.73c3.77,3.75,5.67,9.84,5.67,18.13,0,7.55,0,18.69,0,30,0,1.57,0,3.14,0,4.71-.06,19.42-.13,38-.13,38.21,0,.54-1,13.24-18.51,13.24Z" transform="translate(-7.26 -136.71)"/><path class="bb911f1d-bf7a-4af5-b11f-7b300260c4f8" d="M579,531.63l-5.82,0-12.42-.06-8.87,0-11.19-.06h-2.42a14.71,14.71,0,0,0-11,4.51c-5,5.43-4.79,13.79-4.75,14.61V602c0,4.38,1.35,7.87,4,10.39,4,3.77,9.65,4.08,11.37,4.08h38.35c12.47,0,13.08-12.32,13.09-12.5,0-.38.11-37.63.11-53.4,0-7.66-1.64-13.14-4.86-16.3A8.34,8.34,0,0,0,579,531.63ZM526.9,607.15a12.5,12.5,0,0,1-1-5.2V550.51s0-.07,0-.1-.36-7.67,3.88-12.21a11.47,11.47,0,0,1,8.58-3.43l16.38.08h3.42l20.91.11a5.17,5.17,0,0,1,3.22,1.63c1.76,1.72,3.86,5.53,3.86,13.91,0,15.77-.11,53-.11,53.33s-.46,9.23-9.75,9.23h-38c-.06,0-5,.2-8.6-2.49a8.59,8.59,0,0,1-2.75-3.44Z" transform="translate(-7.26 -136.71)"/><path class="f7205ae6-3c3b-4df2-af68-3dbeb96b2641" d="M611.73,483.37a12.43,12.43,0,0,0,3.79,9.34c4.61,4.42,12.07,5.09,15.12,5.18H682c12.74,0,16.51-8.16,16.73-12.55,0-.38.15-37.81.15-53.66,0-6.88-1.71-12.05-5.09-15.36a12.36,12.36,0,0,0-8.16-3.6l-53.65-.2h0c-6.83.08-12.09,2.08-15.63,5.94-4.94,5.38-4.68,12.44-4.63,13.27Zm81.91-61.64a22.22,22.22,0,0,1,1.94,9.95c0,5.53,0,13.68,0,22,0,1.58,0,3.16,0,4.73,0,13.43-.08,26-.09,26.89,0,.71-1,9.28-13.39,9.28h-50.1c-.09,0-9.33.33-14.11-4.25a9.12,9.12,0,0,1-2.77-6.93V431.55c0-.06-.42-6.28,3.76-10.83,2.89-3.16,7.33-4.79,13.2-4.86l21,.08h4.57l28.08.11h0a7.37,7.37,0,0,1,1.8.29,9.19,9.19,0,0,1,4,2.4A11.3,11.3,0,0,1,693.64,421.73Z" transform="translate(-7.26 -136.71)"/><path class="bb911f1d-bf7a-4af5-b11f-7b300260c4f8" d="M501.51,644.51H8.93a1.67,1.67,0,1,1,0-3.34H499.84v-18a1.66,1.66,0,0,1,1.67-1.67H791.07a1.67,1.67,0,1,1,0,3.33H503.17v18A1.66,1.66,0,0,1,501.51,644.51Z" transform="translate(-7.26 -136.71)"/><rect class="b5f59027-6696-48ec-bd1c-7750eec600af" x="206.59" y="470.5" width="176.59" height="23.5" rx="4.69"/></g></svg>