<svg id="Calque_1" data-name="Calque 1" xmlns="http://www.w3.org/2000/svg" viewBox="0 0 551.06 130.07"><defs><style>.cls-1{fill:#41aaff;}.cls-2{isolation:isolate;}</style></defs><title>Logo-Homere-Transports</title><g id="g50"><g id="g56"><g id="path58"><path class="cls-1" d="M133.22,385.13v-6.7L132,373.54l1-4.48,2.45-8.79,4.28-3.5,4.13-7.7,4.81-2.5,5.33-3.12,17.88-4.19,18.89-4.21,9.06,3.89,13.22,2.29,12.07,8.29L201,362.19,166,374.1l-28.8,18.42Z" transform="translate(-132 -335.05)"/></g></g><g id="g60"><g id="path62"><path class="cls-1" d="M237.2,408.45l-5,.71,1,4.59-3.42,4.72-2.92,2,2.83,2.21-1,2.9,3.48,4.59,3.12,5.69.8,7.53-1.49,3.85-4.49,5.36-5.38,2.55-10,1.54-3.31,2.13h-6.72l-4.65.95L175.79,453l-28.45-14.15,5-10.51-10.1-7-5.44-13.88.84-12.17,29.61-18.45,34.87-11.87L226.92,352l2.69,10.72-.25,6.15,2.2,7.2-2,6.17.59,4.91,3.48,5.37,4.58,12Z" transform="translate(-132 -335.05)"/></g></g><g id="g64"><g id="path66"><path class="cls-1" d="M133.65,393.73l-.1,1.5-.07,0,.1-1.55-.65-1.17.06,0Z" transform="translate(-132 -335.05)"/></g></g></g><g id="g14"><g id="g20"><g id="path22"><path class="cls-1" d="M317.15,388.57a2.77,2.77,0,0,0-2.76-2.76H297.74a2.77,2.77,0,0,0-2.76,2.76v21.9a2.77,2.77,0,0,1-2.76,2.75H279.46a2.76,2.76,0,0,1-2.76-2.75V349.36a2.77,2.77,0,0,1,2.76-2.76h12.76a2.77,2.77,0,0,1,2.76,2.76V368a2.76,2.76,0,0,0,2.76,2.75h16.65a2.76,2.76,0,0,0,2.76-2.75V349.36a2.77,2.77,0,0,1,2.76-2.76h12.76a2.77,2.77,0,0,1,2.76,2.76v61.11a2.76,2.76,0,0,1-2.76,2.75H319.91a2.77,2.77,0,0,1-2.76-2.75Z" transform="translate(-132 -335.05)"/></g></g><g id="g24"><g id="path26"><path class="cls-1" d="M393,379.91c0-11-4.09-18.84-15-18.84s-15,7.8-15,18.84,4.09,18.85,15,18.85,15-7.71,15-18.85m18.85,0c0,19.32-9.8,34.36-33.89,34.36s-33.79-15-33.79-34.36,9.71-34.36,33.79-34.36,33.89,15,33.89,34.36" transform="translate(-132 -335.05)"/></g></g><g id="g28"><g id="path30"><path class="cls-1" d="M473.16,378.58c0-1.52-.53-1.64-1.18-.27l-10,21.28a4.75,4.75,0,0,1-3.94,2.5h-4a4.74,4.74,0,0,1-3.93-2.5l-10-21.18c-.65-1.37-1.18-1.25-1.18.26v31.79a2.77,2.77,0,0,1-2.76,2.76H423.37a2.76,2.76,0,0,1-2.75-2.76v-61.1a2.76,2.76,0,0,1,2.75-2.76h13.05a4.74,4.74,0,0,1,3.93,2.5l14.5,30.79c.64,1.37,1.7,1.37,2.34,0l14.42-30.79a4.72,4.72,0,0,1,3.92-2.5h13.14a2.77,2.77,0,0,1,2.76,2.76v61.1a2.77,2.77,0,0,1-2.76,2.76H475.91a2.76,2.76,0,0,1-2.75-2.76Z" transform="translate(-132 -335.05)"/></g></g><g id="g32"><g id="path34"><path class="cls-1" d="M505.8,413.22a2.76,2.76,0,0,1-2.76-2.75V349.36a2.77,2.77,0,0,1,2.76-2.76h44.36a2.77,2.77,0,0,1,2.76,2.76v9.9a2.77,2.77,0,0,1-2.76,2.76H524.08a2.77,2.77,0,0,0-2.76,2.76v4.85a2.77,2.77,0,0,0,2.76,2.76h20.18a2.77,2.77,0,0,1,2.76,2.76v9.52a2.77,2.77,0,0,1-2.76,2.76H524.08a2.77,2.77,0,0,0-2.76,2.76v4.86a2.77,2.77,0,0,0,2.76,2.76h26.65a2.77,2.77,0,0,1,2.76,2.76v9.9a2.76,2.76,0,0,1-2.76,2.75Z" transform="translate(-132 -335.05)"/></g></g><g id="g36"><g id="path38"><path class="cls-1" d="M593.37,360.78h-9.61a2.77,2.77,0,0,0-2.76,2.76v8.57a2.77,2.77,0,0,0,2.76,2.76h6.76c1.51,0,4-.14,5.5-.32,0,0,8.11-.92,8.11-6.73s-4.57-7-10.76-7M590,391.41a5.45,5.45,0,0,0-4.19-2.36h-2.09a2.77,2.77,0,0,0-2.76,2.76v18.66a2.77,2.77,0,0,1-2.76,2.76H565.48a2.77,2.77,0,0,1-2.76-2.76V349.36a2.77,2.77,0,0,1,2.76-2.76h26.27c1.52,0,4-.05,5.52-.1,0,0,25.42-.95,25.32,21.32-.05,10.76-5,17.33-15.8,20l14.43,23.07c.81,1.29.22,2.35-1.29,2.35h-14a5.44,5.44,0,0,1-4.18-2.37Z" transform="translate(-132 -335.05)"/></g></g><g id="g40"><g id="path42"><path class="cls-1" d="M633.63,413.22a2.76,2.76,0,0,1-2.76-2.75V349.36a2.77,2.77,0,0,1,2.76-2.76H678a2.77,2.77,0,0,1,2.76,2.76v9.9A2.77,2.77,0,0,1,678,362H651.91a2.77,2.77,0,0,0-2.76,2.76v4.85a2.77,2.77,0,0,0,2.76,2.76h20.17a2.77,2.77,0,0,1,2.76,2.76v9.52a2.77,2.77,0,0,1-2.76,2.76H651.91a2.77,2.77,0,0,0-2.76,2.76v4.86a2.77,2.77,0,0,0,2.76,2.76h26.65a2.77,2.77,0,0,1,2.76,2.76v9.9a2.77,2.77,0,0,1-2.76,2.75Z" transform="translate(-132 -335.05)"/></g></g></g><g id="text46" class="cls-2"><g class="cls-2"><path class="cls-1" d="M461.45,429.67l-.69,3.27h-9.2l-5.12,24.2h-3.75l5.11-24.2h-9.2l.69-3.27Z" transform="translate(-132 -335.05)"/></g><g class="cls-2"><path class="cls-1" d="M469.11,437.11h3.18l-.73,3.46a10.46,10.46,0,0,1,2.43-2.46,6.11,6.11,0,0,1,3.82-1.45l.31,0,.75.08-.75,3.55a3.69,3.69,0,0,0-.53-.07,4.7,4.7,0,0,0-.54,0,5.85,5.85,0,0,0-4.23,1.63,7.3,7.3,0,0,0-2.17,3.77l-2.41,11.52h-3.35Z" transform="translate(-132 -335.05)"/></g><g class="cls-2"><path class="cls-1" d="M498.31,445a2.38,2.38,0,0,0,1.76-1,3.42,3.42,0,0,0,.48-1.29,2.23,2.23,0,0,0-.68-2.49,5.68,5.68,0,0,0-3.33-.78,5.37,5.37,0,0,0-4,1.42,5.83,5.83,0,0,0-1.28,2.34h-3.12a7.45,7.45,0,0,1,3.47-5.15,11.39,11.39,0,0,1,5.64-1.45,9.34,9.34,0,0,1,5.41,1.34c1.26.9,1.7,2.3,1.3,4.19L501.5,453.7a1.44,1.44,0,0,0,0,.84c.09.21.37.32.83.32l.51,0,.62-.08-.54,2.48a8.71,8.71,0,0,1-1.23.28,8.41,8.41,0,0,1-1.13.06,2.17,2.17,0,0,1-2.25-1.24,4,4,0,0,1-.18-1.85,11.68,11.68,0,0,1-3.44,2.34,10.37,10.37,0,0,1-4.43,1,5.11,5.11,0,0,1-4.17-1.69,4.78,4.78,0,0,1-.87-4.24,7,7,0,0,1,2.65-4.31,10,10,0,0,1,4.94-1.89ZM491.67,455a8.79,8.79,0,0,0,3.61-.82,6.1,6.1,0,0,0,3.73-4.47l.56-2.71a6.87,6.87,0,0,1-1.71.65,15.13,15.13,0,0,1-2,.38l-2.08.26a9.31,9.31,0,0,0-2.9.76,3.9,3.9,0,0,0-2.14,2.81,2.3,2.3,0,0,0,.57,2.3A3.22,3.22,0,0,0,491.67,455Z" transform="translate(-132 -335.05)"/></g><g class="cls-2"><path class="cls-1" d="M518.09,437.11h3.18l-.6,2.85a12,12,0,0,1,3.53-2.53,9,9,0,0,1,3.67-.77c2.82,0,4.52,1,5.09,3a10.07,10.07,0,0,1-.15,4.65l-2.71,12.85h-3.4l2.66-12.62a6.55,6.55,0,0,0,.09-3c-.34-1.24-1.28-1.87-2.85-1.87a6.77,6.77,0,0,0-2,.25,6.55,6.55,0,0,0-2.77,1.64,6.64,6.64,0,0,0-1.52,2.05,15.52,15.52,0,0,0-.88,3l-2.21,10.49h-3.35Z" transform="translate(-132 -335.05)"/></g><g class="cls-2"><path class="cls-1" d="M546,450.86a4.37,4.37,0,0,0,.3,2.58c.61,1.08,2,1.62,4,1.62a7.49,7.49,0,0,0,3.45-.81,3.52,3.52,0,0,0,2-2.52,1.73,1.73,0,0,0-.73-2,11,11,0,0,0-2.66-.95l-2.51-.67a10.43,10.43,0,0,1-3.46-1.43A3.39,3.39,0,0,1,545,443a7.34,7.34,0,0,1,3-4.6,9.64,9.64,0,0,1,5.85-1.76c3,0,5,.88,5.93,2.65a5.11,5.11,0,0,1,.44,3.63H557a3.24,3.24,0,0,0-.37-2.07c-.58-.89-1.82-1.33-3.72-1.33a5.47,5.47,0,0,0-3,.73,3,3,0,0,0-1.38,1.92,1.9,1.9,0,0,0,.83,2.1,6.44,6.44,0,0,0,2,.82l2.1.54a14,14,0,0,1,4.48,1.71q1.68,1.29,1.08,4a8,8,0,0,1-3,4.62,10.19,10.19,0,0,1-6.56,2c-3,0-4.92-.68-5.86-2a6.52,6.52,0,0,1-.92-5Z" transform="translate(-132 -335.05)"/></g><g class="cls-2"><path class="cls-1" d="M573.25,437.21h3.25l-.56,2.65a11.07,11.07,0,0,1,2.64-2.11,8.25,8.25,0,0,1,4.22-1.12,5.92,5.92,0,0,1,5.19,2.61c1.2,1.73,1.46,4.22.78,7.45q-1.38,6.54-5.37,9.35a9.26,9.26,0,0,1-5.39,1.77,5.82,5.82,0,0,1-3.57-1,5.92,5.92,0,0,1-1.58-1.93l-2.16,10.23h-3.35Zm12,9.79a10.45,10.45,0,0,0,.17-4.11,3.68,3.68,0,0,0-4.05-3.31,6.17,6.17,0,0,0-5.51,3.5,16.58,16.58,0,0,0-1.69,4.75,9.71,9.71,0,0,0-.13,3.94c.42,2.07,1.79,3.11,4.09,3.11a6,6,0,0,0,4.32-2A11.52,11.52,0,0,0,585.29,447Z" transform="translate(-132 -335.05)"/></g><g class="cls-2"><path class="cls-1" d="M617.48,446.71a16.17,16.17,0,0,1-4,8,10.42,10.42,0,0,1-7.93,3.16q-4.11,0-5.93-2.8t-.84-7.5a15,15,0,0,1,4.26-8,10.53,10.53,0,0,1,7.47-3,7.28,7.28,0,0,1,6,2.58Q618.53,441.69,617.48,446.71Zm-3.52.09a9.41,9.41,0,0,0,.08-4.56q-.84-2.78-4.3-2.77a6,6,0,0,0-5,2.36,13.31,13.31,0,0,0-2.59,5.68,8.66,8.66,0,0,0,.27,5.33c.62,1.42,1.95,2.13,4,2.13a5.89,5.89,0,0,0,5.11-2.53A15.12,15.12,0,0,0,614,446.8Z" transform="translate(-132 -335.05)"/></g><g class="cls-2"><path class="cls-1" d="M631.18,437.11h3.18l-.72,3.46a10.37,10.37,0,0,1,2.42-2.46,6.13,6.13,0,0,1,3.82-1.45l.32,0,.74.08-.74,3.55a4,4,0,0,0-.54-.07,4.52,4.52,0,0,0-.54,0,5.88,5.88,0,0,0-4.23,1.63,7.35,7.35,0,0,0-2.16,3.77l-2.42,11.52H627Z" transform="translate(-132 -335.05)"/></g><g class="cls-2"><path class="cls-1" d="M653.24,431.52h3.39l-1.19,5.59h3.18l-.58,2.75h-3.18l-2.77,13.07c-.15.7,0,1.17.41,1.4a2.66,2.66,0,0,0,1.26.21h.52c.19,0,.41,0,.67,0l-.55,2.66a8.76,8.76,0,0,1-1.26.24,11.75,11.75,0,0,1-1.37.08c-1.56,0-2.53-.41-2.92-1.21a4.85,4.85,0,0,1-.18-3.13l2.81-13.26h-2.7l.58-2.75h2.69Z" transform="translate(-132 -335.05)"/></g><g class="cls-2"><path class="cls-1" d="M668.67,450.86a4.29,4.29,0,0,0,.3,2.58c.61,1.08,1.95,1.62,4,1.62a7.49,7.49,0,0,0,3.45-.81,3.52,3.52,0,0,0,1.95-2.52,1.73,1.73,0,0,0-.73-2,11,11,0,0,0-2.66-.95l-2.51-.67a10.43,10.43,0,0,1-3.46-1.43,3.39,3.39,0,0,1-1.35-3.77,7.34,7.34,0,0,1,3-4.6,9.63,9.63,0,0,1,5.84-1.76q4.5,0,5.94,2.65a5.11,5.11,0,0,1,.44,3.63h-3.16a3.24,3.24,0,0,0-.37-2.07c-.58-.89-1.82-1.33-3.72-1.33a5.47,5.47,0,0,0-3,.73,3,3,0,0,0-1.38,1.92,1.9,1.9,0,0,0,.83,2.1,6.44,6.44,0,0,0,2,.82l2.1.54a14,14,0,0,1,4.48,1.71q1.66,1.29,1.08,4a7.94,7.94,0,0,1-3,4.62,10.14,10.14,0,0,1-6.55,2c-3,0-4.92-.68-5.86-2a6.52,6.52,0,0,1-.92-5Z" transform="translate(-132 -335.05)"/></g></g></svg>